<svg xmlns="http://www.w3.org/2000/svg" viewBox="0 0 800 380" width="800" height="380" role="img" aria-labelledby="t d">
<title id="t">S-59 生まれた S の θ の推移</title><desc id="d">PC-S は上がり続け、SEL は両 seed とも下がる。中立の M 12 走行は灰の細線。</desc>
<style>
  svg { --surface:#fcfcfb; --ink:#0b0b0b; --ink2:#52514e; --muted:#898781; --grid:#e1e0d9; --axis:#c3c2b7;
        --s1:#2a78d6; --s2:#eb6834; --s3:#1baf7a; --wdot:#d6d5cf; --fring:#898781; --sfree:#52514e; }
  @media (prefers-color-scheme: dark) {
    svg { --surface:#1a1a19; --ink:#ffffff; --ink2:#c3c2b7; --muted:#898781; --grid:#2c2c2a; --axis:#383835;
          --s1:#3987e5; --s2:#d95926; --s3:#199e70; --wdot:#383835; --fring:#898781; --sfree:#c3c2b7; }
  }
  text { font-family: system-ui, -apple-system, "Segoe UI", sans-serif; fill: var(--ink); }
  .t2 { fill: var(--ink2); } .mu { fill: var(--muted); }
</style>
<rect x="0" y="0" width="800" height="380" fill="var(--surface)"/>
<text x="10" y="22" font-size="15" font-weight="700">生まれた S の θ の平均（100τ ごと）</text>
<text x="10" y="40" font-size="11" class="t2">灰の細線＝主の腕 M の 12 走行（θ が力学に効かない中立）。帯＝判定の窓 E と W</text><rect x="190" y="70" width="140" height="260" fill="var(--grid)" opacity="0.6"/><text x="193" y="82" font-size="10" class="mu">E</text><rect x="470" y="70" width="140" height="260" fill="var(--grid)" opacity="0.6"/><text x="473" y="82" font-size="10" class="mu">W</text><line x1="50" x2="610" y1="330" y2="330" stroke="var(--grid)" stroke-width="1"/><text x="44" y="334" font-size="10" text-anchor="end" class="mu">0.3</text><line x1="50" x2="610" y1="278" y2="278" stroke="var(--grid)" stroke-width="1"/><text x="44" y="282" font-size="10" text-anchor="end" class="mu">0.4</text><line x1="50" x2="610" y1="226" y2="226" stroke="var(--grid)" stroke-width="1"/><text x="44" y="230" font-size="10" text-anchor="end" class="mu">0.5</text><line x1="50" x2="610" y1="174" y2="174" stroke="var(--grid)" stroke-width="1"/><text x="44" y="178" font-size="10" text-anchor="end" class="mu">0.6</text><line x1="50" x2="610" y1="122.00000000000003" y2="122.00000000000003" stroke="var(--grid)" stroke-width="1"/><text x="44" y="126.00000000000003" font-size="10" text-anchor="end" class="mu">0.7</text><line x1="50" x2="610" y1="70" y2="70" stroke="var(--grid)" stroke-width="1"/><text x="44" y="74" font-size="10" text-anchor="end" class="mu">0.8</text><text x="50" y="344" font-size="10" text-anchor="middle" class="mu">0</text><text x="190" y="344" font-size="10" text-anchor="middle" class="mu">500</text><text x="330" y="344" font-size="10" text-anchor="middle" class="mu">1000</text><text x="470" y="344" font-size="10" text-anchor="middle" class="mu">1500</text><text x="610" y="344" font-size="10" text-anchor="middle" class="mu">2000</text><line x1="50" x2="610" y1="330" y2="330" stroke="var(--axis)"/><text x="50" y="64" font-size="11" class="t2">θ̄（生まれた S）</text><polyline points="64.0,256.1 92.0,289.9 120.0,237.7 148.0,216.9 176.0,207.0 204.0,229.5 232.0,229.2 260.0,233.3 288.0,223.6 316.0,236.5 344.0,221.3 372.0,214.3 400.0,218.3 428.0,212.8 456.0,219.6 484.0,214.4 512.0,222.6 540.0,213.8 568.0,212.0 596.0,211.7" fill="none" stroke="var(--axis)" stroke-width="1.2" stroke-linejoin="round" stroke-linecap="round"><title>M_eps2_phi1_s5901（中立）</title></polyline><polyline points="64.0,203.0 92.0,218.2 120.0,229.4 148.0,216.3 176.0,170.4 204.0,149.8 232.0,139.5 260.0,166.6 288.0,163.3 316.0,168.9 344.0,173.3 372.0,166.6 400.0,164.9 428.0,169.6 456.0,174.1 484.0,173.3 512.0,169.8 540.0,170.6 568.0,172.2 596.0,177.1" fill="none" stroke="var(--axis)" stroke-width="1.2" stroke-linejoin="round" stroke-linecap="round"><title>M_eps2_phi1_s5902（中立）</title></polyline><polyline points="64.0,232.8 92.0,240.7 120.0,237.6 148.0,258.2 176.0,251.7 204.0,256.6 232.0,268.3 260.0,269.3 288.0,277.8 316.0,275.8 344.0,266.6 372.0,267.8 400.0,265.4 428.0,260.9 456.0,267.2 484.0,260.6 512.0,268.2 540.0,256.4 568.0,256.8 596.0,256.6" fill="none" stroke="var(--axis)" stroke-width="1.2" stroke-linejoin="round" stroke-linecap="round"><title>M_eps2_phi2_s5901（中立）</title></polyline><polyline points="64.0,205.6 92.0,228.1 120.0,234.3 148.0,226.9 176.0,214.8 204.0,210.3 232.0,208.9 260.0,205.1 288.0,204.2 316.0,202.2 344.0,196.7 372.0,194.1 400.0,198.4 428.0,187.9 456.0,197.9 484.0,194.6 512.0,194.9 540.0,193.3 568.0,198.3 596.0,191.2" fill="none" stroke="var(--axis)" stroke-width="1.2" stroke-linejoin="round" stroke-linecap="round"><title>M_eps2_phi2_s5902（中立）</title></polyline><polyline points="64.0,250.0 92.0,225.6 120.0,225.9 148.0,233.3 176.0,223.6 204.0,225.5 232.0,218.3 260.0,228.4 288.0,225.3 316.0,226.3 344.0,228.0 372.0,230.6 400.0,229.2 428.0,225.1 456.0,225.5 484.0,227.2 512.0,229.8 540.0,228.8 568.0,229.6 596.0,227.7" fill="none" stroke="var(--axis)" stroke-width="1.2" stroke-linejoin="round" stroke-linecap="round"><title>M_eps2_phi4_s5901（中立）</title></polyline><polyline points="64.0,227.4 92.0,218.8 120.0,208.7 148.0,205.2 176.0,211.0 204.0,205.9 232.0,211.5 260.0,211.0 288.0,212.0 316.0,212.2 344.0,211.1 372.0,211.3 400.0,209.6 428.0,213.1 456.0,214.4 484.0,211.5 512.0,214.2 540.0,211.5 568.0,211.1 596.0,212.1" fill="none" stroke="var(--axis)" stroke-width="1.2" stroke-linejoin="round" stroke-linecap="round"><title>M_eps2_phi4_s5902（中立）</title></polyline><polyline points="64.0,223.9 92.0,235.6 120.0,239.1 148.0,264.2 176.0,264.8 204.0,249.5 232.0,242.0 260.0,251.5 288.0,228.3 316.0,251.3 344.0,264.9 372.0,235.5 400.0,234.9 428.0,224.6 456.0,226.8 484.0,249.5 512.0,234.4 540.0,240.4 568.0,234.2 596.0,241.9" fill="none" stroke="var(--axis)" stroke-width="1.2" stroke-linejoin="round" stroke-linecap="round"><title>M_eps3_phi1_s5901（中立）</title></polyline><polyline points="64.0,198.0 92.0,199.1 120.0,205.7 148.0,192.4 176.0,183.4 204.0,196.5 232.0,190.8 260.0,185.5 288.0,208.4 316.0,208.5 344.0,203.7 372.0,196.3 400.0,196.5 428.0,203.3 456.0,177.3 484.0,197.0 512.0,200.4 540.0,196.7 568.0,194.8 596.0,187.2" fill="none" stroke="var(--axis)" stroke-width="1.2" stroke-linejoin="round" stroke-linecap="round"><title>M_eps3_phi1_s5902（中立）</title></polyline><polyline points="64.0,238.5 92.0,236.1 120.0,253.9 148.0,257.7 176.0,241.9 204.0,259.7 232.0,256.8 260.0,268.0 288.0,271.1 316.0,281.3 344.0,276.2 372.0,276.8 400.0,271.1 428.0,277.7 456.0,274.2 484.0,274.5 512.0,272.5 540.0,259.5 568.0,272.5 596.0,265.1" fill="none" stroke="var(--axis)" stroke-width="1.2" stroke-linejoin="round" stroke-linecap="round"><title>M_eps3_phi2_s5901（中立）</title></polyline><polyline points="64.0,223.9 92.0,222.4 120.0,218.2 148.0,226.5 176.0,240.5 204.0,247.5 232.0,242.5 260.0,226.7 288.0,235.8 316.0,233.6 344.0,250.9 372.0,228.3 400.0,227.5 428.0,227.6 456.0,243.0 484.0,241.6 512.0,241.9 540.0,237.0 568.0,244.2 596.0,240.6" fill="none" stroke="var(--axis)" stroke-width="1.2" stroke-linejoin="round" stroke-linecap="round"><title>M_eps3_phi2_s5902（中立）</title></polyline><polyline points="64.0,242.9 92.0,228.6 120.0,239.8 148.0,238.0 176.0,240.9 204.0,249.5 232.0,231.6 260.0,243.2 288.0,235.7 316.0,224.4 344.0,228.3 372.0,236.6 400.0,237.6 428.0,231.6 456.0,237.3 484.0,235.5 512.0,228.3 540.0,229.7 568.0,232.2 596.0,234.1" fill="none" stroke="var(--axis)" stroke-width="1.2" stroke-linejoin="round" stroke-linecap="round"><title>M_eps3_phi4_s5901（中立）</title></polyline><polyline points="64.0,210.5 92.0,187.0 120.0,193.5 148.0,195.4 176.0,191.2 204.0,183.3 232.0,179.2 260.0,184.4 288.0,194.2 316.0,200.0 344.0,190.9 372.0,195.3 400.0,207.0 428.0,216.8 456.0,213.8 484.0,212.3 512.0,205.9 540.0,209.2 568.0,205.6 596.0,207.5" fill="none" stroke="var(--axis)" stroke-width="1.2" stroke-linejoin="round" stroke-linecap="round"><title>M_eps3_phi4_s5902（中立）</title></polyline><polyline points="64.0,225.2 92.0,199.8 120.0,181.1 148.0,167.1 176.0,164.5 204.0,162.0 232.0,156.7 260.0,141.5 288.0,130.7 316.0,136.0 344.0,132.4 372.0,131.3 400.0,129.7 428.0,128.7 456.0,127.0 484.0,121.2 512.0,117.6 540.0,110.3 568.0,105.2 596.0,104.4" fill="none" stroke="var(--s2)" stroke-width="2" stroke-linejoin="round" stroke-linecap="round"><title>PC-S s5901</title></polyline><text x="601" y="108.39514326250938" font-size="11" class="t2">PC-S（選択を植えた較正）</text><polyline points="64.0,236.9 92.0,247.6 120.0,283.5 148.0,289.9 176.0,271.6 204.0,265.1 232.0,265.7 260.0,268.9 288.0,273.6 316.0,262.0 344.0,285.2 372.0,280.6 400.0,284.7 428.0,292.7 456.0,288.3 484.0,292.5 512.0,291.4 540.0,289.7 568.0,294.2 596.0,297.4" fill="none" stroke="var(--s1)" stroke-width="2" stroke-linejoin="round" stroke-linecap="round"><title>SEL s5901</title></polyline><text x="601" y="307.4297182041288" font-size="11" class="t2">SEL s5901</text><polyline points="64.0,212.3 92.0,212.8 120.0,210.6 148.0,204.8 176.0,208.8 204.0,215.5 232.0,219.4 260.0,226.5 288.0,223.3 316.0,237.5 344.0,233.1 372.0,232.2 400.0,245.3 428.0,247.9 456.0,246.9 484.0,249.2 512.0,249.0 540.0,248.2 568.0,245.3 596.0,254.4" fill="none" stroke="var(--s1)" stroke-width="2" stroke-linejoin="round" stroke-linecap="round" stroke-dasharray="5 3"><title>SEL s5902</title></polyline><text x="601" y="258.3518796678373" font-size="11" class="t2">SEL s5902</text><text x="330" y="365" font-size="11" text-anchor="middle" class="mu">時刻 t（τ）</text>
</svg>
