<svg xmlns="http://www.w3.org/2000/svg" viewBox="0 0 900 444" width="900" height="444" class="s" role="img" aria-labelledby="r2f3"><title id="r2f3">図3 台帳の比は全ての走行で登録の線 0.02 を越え、正規化を替えても較正の腕 E-geo は通常の腕の 5 倍に届かなかった</title><style>
.s{--surface:#fcfcfb;--ink:#0b0b0b;--ink2:#52514e;--muted:#898781;--grid:#e1e0d9;--axis:#c3c2b7;--c1:#2a78d6;--c2:#eb6834;--c3:#1baf7a;--c4:#eda100;--w0:#f0efec;--w1:#cde2fb;--w2:#3987e5;--w3:#0d366b;--pt:#52514e}
@media (prefers-color-scheme: dark){.s{--surface:#1a1a19;--ink:#ffffff;--ink2:#c3c2b7;--muted:#898781;--grid:#2c2c2a;--axis:#383835;--c1:#3987e5;--c2:#d95926;--c3:#199e70;--c4:#c98500;--w0:#232322;--w1:#184f95;--w2:#5598e7;--w3:#cde2fb;--pt:#c3c2b7}}
.s text{font-family:system-ui,-apple-system,"Segoe UI",sans-serif;fill:var(--ink2);font-size:12px}
.s .t{fill:var(--ink);font-size:14px;font-weight:600}.s .h{fill:var(--ink);font-size:12.5px;font-weight:600}.s .m{fill:var(--muted);font-size:11px}
.s .bg{fill:var(--surface)}.s .grid{stroke:var(--grid);stroke-width:1}.s .axis{stroke:var(--axis);stroke-width:1}.s .frame{fill:none;stroke:var(--axis)}
.s .thr{stroke:var(--muted);stroke-width:1.5;fill:none;stroke-dasharray:6 4}
</style><rect class="bg" x="0" y="0" width="900" height="444"/><text x="16" y="24" class="t">図3 Layzer–Irvine の台帳の比 max|ε|——全走行で登録の線 0.02 を越え、正規化を替えても閉じなかった</text><text x="16" y="42" class="m">横軸は対数。S4 が ledger.jsonl の刻みごとの K・W から計算し直した値（li_r2.js）。実装の値（青）は後半の刻みだけで取っており、登録の区間（橙）と違う</text><circle cx="21.0" cy="56.0" r="4.5" fill="var(--c1)" stroke="var(--surface)" stroke-width="1.5"/><text x="32" y="60">実装の値（Σ・後半の刻み）＝判定に使われた値</text><rect x="457.0" y="52.0" width="8" height="8" fill="var(--c2)" stroke="var(--surface)" stroke-width="1.5"/><text x="472" y="60">Σ（Winther）・登録の区間 [a_i e^0.5, a_f]</text><path d="M21.0 68.5L26.5 74.0L21.0 79.5L15.5 74.0Z" fill="var(--c3)" stroke="var(--surface)" stroke-width="1.5"/><text x="32" y="78">knob: σ/|W|</text><path d="M461.0 68.5L466.5 78.5L455.5 78.5Z" fill="var(--c4)" stroke="var(--surface)" stroke-width="1.5"/><text x="472" y="78">knob: σ/(|W|+K)</text><line class="grid" x1="200.9" x2="200.9" y1="86" y2="386"/><text x="200.9" y="402" text-anchor="middle" class="m">0.01</text><line class="grid" x1="302.7" x2="302.7" y1="86" y2="386"/><text x="302.7" y="402" text-anchor="middle" class="m">0.1</text><line class="grid" x1="404.5" x2="404.5" y1="86" y2="386"/><text x="404.5" y="402" text-anchor="middle" class="m">1</text><line class="grid" x1="506.4" x2="506.4" y1="86" y2="386"/><text x="506.4" y="402" text-anchor="middle" class="m">10</text><line class="grid" x1="608.2" x2="608.2" y1="86" y2="386"/><text x="608.2" y="402" text-anchor="middle" class="m">100</text><line class="grid" x1="710.0" x2="710.0" y1="86" y2="386"/><text x="710.0" y="402" text-anchor="middle" class="m">1000</text><line class="thr" x1="231.6" x2="231.6" y1="82" y2="390"/><text x="235.6" y="416" class="m">登録の線 0.02</text><text x="140" y="106.5" text-anchor="end">S-n1 6101</text><circle cx="392.0" cy="102.5" r="4.5" fill="var(--c1)" stroke="var(--surface)" stroke-width="1.5"/><rect x="617.0" y="98.5" width="8" height="8" fill="var(--c2)" stroke="var(--surface)" stroke-width="1.5"/><path d="M396.1 97.0L401.6 102.5L396.1 108.0L390.6 102.5Z" fill="var(--c3)" stroke="var(--surface)" stroke-width="1.5"/><path d="M379.5 97.0L385.0 107.0L374.0 107.0Z" fill="var(--c4)" stroke="var(--surface)" stroke-width="1.5"/><text x="140" y="127.5" text-anchor="end">S-n1 6102</text><circle cx="396.5" cy="123.5" r="4.5" fill="var(--c1)" stroke="var(--surface)" stroke-width="1.5"/><rect x="610.2" y="119.5" width="8" height="8" fill="var(--c2)" stroke="var(--surface)" stroke-width="1.5"/><path d="M398.1 118.0L403.6 123.5L398.1 129.0L392.6 123.5Z" fill="var(--c3)" stroke="var(--surface)" stroke-width="1.5"/><path d="M381.5 118.0L387.0 128.0L376.0 128.0Z" fill="var(--c4)" stroke="var(--surface)" stroke-width="1.5"/><text x="140" y="148.5" text-anchor="end">S-n0 6101</text><circle cx="694.5" cy="144.5" r="4.5" fill="var(--c1)" stroke="var(--surface)" stroke-width="1.5"/><rect x="690.5" y="140.5" width="8" height="8" fill="var(--c2)" stroke="var(--surface)" stroke-width="1.5"/><path d="M435.7 139.0L441.2 144.5L435.7 150.0L430.2 144.5Z" fill="var(--c3)" stroke="var(--surface)" stroke-width="1.5"/><path d="M418.7 139.0L424.2 149.0L413.2 149.0Z" fill="var(--c4)" stroke="var(--surface)" stroke-width="1.5"/><text x="140" y="169.5" text-anchor="end">S-n0 6102</text><circle cx="673.9" cy="165.5" r="4.5" fill="var(--c1)" stroke="var(--surface)" stroke-width="1.5"/><rect x="669.9" y="161.5" width="8" height="8" fill="var(--c2)" stroke="var(--surface)" stroke-width="1.5"/><path d="M435.7 160.0L441.2 165.5L435.7 171.0L430.2 165.5Z" fill="var(--c3)" stroke="var(--surface)" stroke-width="1.5"/><path d="M418.7 160.0L424.2 170.0L413.2 170.0Z" fill="var(--c4)" stroke="var(--surface)" stroke-width="1.5"/><text x="140" y="190.5" text-anchor="end">S-cdm 6101</text><circle cx="289.8" cy="186.5" r="4.5" fill="var(--c1)" stroke="var(--surface)" stroke-width="1.5"/><rect x="375.8" y="182.5" width="8" height="8" fill="var(--c2)" stroke="var(--surface)" stroke-width="1.5"/><path d="M319.8 181.0L325.3 186.5L319.8 192.0L314.3 186.5Z" fill="var(--c3)" stroke="var(--surface)" stroke-width="1.5"/><path d="M301.5 181.0L307.0 191.0L296.0 191.0Z" fill="var(--c4)" stroke="var(--surface)" stroke-width="1.5"/><text x="140" y="211.5" text-anchor="end">S-cdm 6102</text><circle cx="295.9" cy="207.5" r="4.5" fill="var(--c1)" stroke="var(--surface)" stroke-width="1.5"/><rect x="386.1" y="203.5" width="8" height="8" fill="var(--c2)" stroke="var(--surface)" stroke-width="1.5"/><path d="M325.5 202.0L331.0 207.5L325.5 213.0L320.0 207.5Z" fill="var(--c3)" stroke="var(--surface)" stroke-width="1.5"/><path d="M307.5 202.0L313.0 212.0L302.0 212.0Z" fill="var(--c4)" stroke="var(--surface)" stroke-width="1.5"/><text x="140" y="232.5" text-anchor="end">S-cut 6101</text><circle cx="265.0" cy="228.5" r="4.5" fill="var(--c1)" stroke="var(--surface)" stroke-width="1.5"/><rect x="395.2" y="224.5" width="8" height="8" fill="var(--c2)" stroke="var(--surface)" stroke-width="1.5"/><path d="M324.3 223.0L329.8 228.5L324.3 234.0L318.8 228.5Z" fill="var(--c3)" stroke="var(--surface)" stroke-width="1.5"/><path d="M308.0 223.0L313.5 233.0L302.5 233.0Z" fill="var(--c4)" stroke="var(--surface)" stroke-width="1.5"/><text x="140" y="253.5" text-anchor="end">S-cut 6102</text><circle cx="277.1" cy="249.5" r="4.5" fill="var(--c1)" stroke="var(--surface)" stroke-width="1.5"/><rect x="419.4" y="245.5" width="8" height="8" fill="var(--c2)" stroke="var(--surface)" stroke-width="1.5"/><path d="M333.9 244.0L339.4 249.5L333.9 255.0L328.4 249.5Z" fill="var(--c3)" stroke="var(--surface)" stroke-width="1.5"/><path d="M317.9 244.0L323.4 254.0L312.4 254.0Z" fill="var(--c4)" stroke="var(--surface)" stroke-width="1.5"/><text x="140" y="274.5" text-anchor="end">L-n1 6101</text><circle cx="346.1" cy="270.5" r="4.5" fill="var(--c1)" stroke="var(--surface)" stroke-width="1.5"/><rect x="640.4" y="266.5" width="8" height="8" fill="var(--c2)" stroke="var(--surface)" stroke-width="1.5"/><path d="M385.9 265.0L391.4 270.5L385.9 276.0L380.4 270.5Z" fill="var(--c3)" stroke="var(--surface)" stroke-width="1.5"/><path d="M369.2 265.0L374.7 275.0L363.7 275.0Z" fill="var(--c4)" stroke="var(--surface)" stroke-width="1.5"/><text x="140" y="295.5" text-anchor="end">L-cdm 6101</text><circle cx="238.8" cy="291.5" r="4.5" fill="var(--c1)" stroke="var(--surface)" stroke-width="1.5"/><rect x="338.0" y="287.5" width="8" height="8" fill="var(--c2)" stroke="var(--surface)" stroke-width="1.5"/><path d="M292.4 286.0L297.9 291.5L292.4 297.0L286.9 291.5Z" fill="var(--c3)" stroke="var(--surface)" stroke-width="1.5"/><path d="M274.1 286.0L279.6 296.0L268.6 296.0Z" fill="var(--c4)" stroke="var(--surface)" stroke-width="1.5"/><text x="140" y="316.5" text-anchor="end">R1 6101</text><circle cx="242.1" cy="312.5" r="4.5" fill="var(--c1)" stroke="var(--surface)" stroke-width="1.5"/><rect x="238.1" y="308.5" width="8" height="8" fill="var(--c2)" stroke="var(--surface)" stroke-width="1.5"/><path d="M269.1 307.0L274.6 312.5L269.1 318.0L263.6 312.5Z" fill="var(--c3)" stroke="var(--surface)" stroke-width="1.5"/><path d="M246.7 307.0L252.2 317.0L241.2 317.0Z" fill="var(--c4)" stroke="var(--surface)" stroke-width="1.5"/><text x="140" y="337.5" text-anchor="end">dt-check 6101</text><circle cx="290.9" cy="333.5" r="4.5" fill="var(--c1)" stroke="var(--surface)" stroke-width="1.5"/><rect x="377.9" y="329.5" width="8" height="8" fill="var(--c2)" stroke="var(--surface)" stroke-width="1.5"/><path d="M321.0 328.0L326.5 333.5L321.0 339.0L315.5 333.5Z" fill="var(--c3)" stroke="var(--surface)" stroke-width="1.5"/><path d="M302.7 328.0L308.2 338.0L297.2 338.0Z" fill="var(--c4)" stroke="var(--surface)" stroke-width="1.5"/><text x="140" y="358.5" text-anchor="end">E-geo 6101</text><circle cx="323.2" cy="354.5" r="4.5" fill="var(--c1)" stroke="var(--surface)" stroke-width="1.5"/><rect x="383.3" y="350.5" width="8" height="8" fill="var(--c2)" stroke="var(--surface)" stroke-width="1.5"/><path d="M342.2 349.0L347.7 354.5L342.2 360.0L336.7 354.5Z" fill="var(--c3)" stroke="var(--surface)" stroke-width="1.5"/><path d="M319.4 349.0L324.9 359.0L313.9 359.0Z" fill="var(--c4)" stroke="var(--surface)" stroke-width="1.5"/><text x="140" y="379.5" text-anchor="end">NC-G0 6101</text><circle cx="366.0" cy="375.5" r="4.5" fill="var(--c1)" stroke="var(--surface)" stroke-width="1.5"/><rect x="373.8" y="371.5" width="8" height="8" fill="var(--c2)" stroke="var(--surface)" stroke-width="1.5"/><path d="M460.9 370.0L466.4 375.5L460.9 381.0L455.4 375.5Z" fill="var(--c3)" stroke="var(--surface)" stroke-width="1.5"/><path d="M460.8 370.0L466.3 380.0L455.3 380.0Z" fill="var(--c4)" stroke="var(--surface)" stroke-width="1.5"/><text x="724" y="358" class="m">E-geo ÷ S-cdm 6101</text><text x="724" y="372" class="m">= 2.1 / 1.2 / 1.7 / 1.5</text><text x="724" y="386" class="m">（登録は 5 倍以上）</text><text x="724" y="415" class="m">NC-G0 は登録の φ=0 だと</text><text x="724" y="429" class="m">Σ≡0 で ε が 0/0 になる</text><text x="430" y="432" text-anchor="middle" class="m">max|ε|（対数）</text></svg>