<svg xmlns="http://www.w3.org/2000/svg" viewBox="0 0 880 440" width="880" height="440" class="s" role="img" aria-labelledby="f1"><title id="f1">最初の自発の創始からの複製の累積。流れの腕は頭打ちの後も複製が続き、閉じた腕は止まる</title><style>
.s{--surface:#fcfcfb;--ink:#0b0b0b;--ink2:#52514e;--muted:#898781;--grid:#e1e0d9;--axis:#c3c2b7;--cell:#f0efec;--c1:#2a78d6;--c2:#eb6834;--c3:#1baf7a}
@media (prefers-color-scheme: dark){:root:not([data-theme="light"]) .s{--surface:#1a1a19;--ink:#ffffff;--ink2:#c3c2b7;--muted:#898781;--grid:#2c2c2a;--axis:#383835;--cell:#262625;--c1:#3987e5;--c2:#d95926;--c3:#199e70}}
:root[data-theme="dark"] .s{--surface:#1a1a19;--ink:#ffffff;--ink2:#c3c2b7;--muted:#898781;--grid:#2c2c2a;--axis:#383835;--cell:#262625;--c1:#3987e5;--c2:#d95926;--c3:#199e70}
.s text{font-family:system-ui,-apple-system,"Segoe UI","Hiragino Sans",sans-serif;fill:var(--ink2);font-size:12px}
.s .t{fill:var(--ink);font-size:14px;font-weight:600}.s .h{fill:var(--ink);font-size:12px;font-weight:600}.s .m{fill:var(--muted);font-size:11px}.s .v{fill:var(--ink);font-size:13px;font-weight:600}
.s .bg{fill:var(--surface)}.s .grid{stroke:var(--grid);stroke-width:1}.s .axis{stroke:var(--axis);stroke-width:1}.s .cell{fill:var(--cell)}
.s .l1{fill:none;stroke:var(--c1);stroke-width:2;opacity:.9}.s .l0{fill:none;stroke:var(--muted);stroke-width:1.5;opacity:.75}
.s .d1{fill:var(--c1);stroke:var(--surface);stroke-width:2}.s .d0{fill:var(--surface);stroke:var(--muted);stroke-width:1.5}
.s .thr{stroke:var(--muted);stroke-width:1.2;stroke-dasharray:4 3}
.s .hit{fill:none;stroke:var(--c3);stroke-width:2}.s .miss{fill:none;stroke:var(--c2);stroke-width:2}.s .na{fill:none;stroke:var(--axis);stroke-width:1;stroke-dasharray:3 3}
.s .kh{fill:var(--c3)}.s .km{fill:var(--c2)}
</style><rect class="bg" x="0" y="0" width="880" height="440"/><text x="16.0" y="24.0" class="t">図1  流れの腕（δ = 1/(50·t_c2)）では、箱が埋まった後も複製が入れ替えの速さで続いた。閉じた腕では止まった</text><text x="60.0" y="52.0" class="h">(a) 複製（写しありの解放）の累積。横軸は最初の自発の創始からの歩</text><line class="grid" x1="60" x2="560" y1="364.0" y2="364.0"/><text x="52.0" y="368.0" class="m" text-anchor="end">0</text><line class="grid" x1="60" x2="560" y1="314.0" y2="314.0"/><text x="52.0" y="318.0" class="m" text-anchor="end">10</text><line class="grid" x1="60" x2="560" y1="264.0" y2="264.0"/><text x="52.0" y="268.0" class="m" text-anchor="end">20</text><line class="grid" x1="60" x2="560" y1="214.0" y2="214.0"/><text x="52.0" y="218.0" class="m" text-anchor="end">30</text><line class="grid" x1="60" x2="560" y1="164.0" y2="164.0"/><text x="52.0" y="168.0" class="m" text-anchor="end">40</text><line class="grid" x1="60" x2="560" y1="114.0" y2="114.0"/><text x="52.0" y="118.0" class="m" text-anchor="end">50</text><line class="grid" x1="60" x2="560" y1="64.0" y2="64.0"/><text x="52.0" y="68.0" class="m" text-anchor="end">60</text><line class="axis" x1="60.0" x2="60.0" y1="364" y2="368"/><text x="60.0" y="381.0" class="m" text-anchor="middle">0</text><line class="axis" x1="185.0" x2="185.0" y1="364" y2="368"/><text x="185.0" y="381.0" class="m" text-anchor="middle">4×10⁵</text><line class="axis" x1="310.0" x2="310.0" y1="364" y2="368"/><text x="310.0" y="381.0" class="m" text-anchor="middle">8×10⁵</text><line class="axis" x1="435.0" x2="435.0" y1="364" y2="368"/><text x="435.0" y="381.0" class="m" text-anchor="middle">12×10⁵</text><line class="axis" x1="560.0" x2="560.0" y1="364" y2="368"/><text x="560.0" y="381.0" class="m" text-anchor="middle">16×10⁵</text><line class="axis" x1="60" x2="560" y1="364" y2="364"/><text x="310.0" y="398.0" class="m" text-anchor="middle">最初の自発の創始からの歩（走行は 2×10⁶ 歩で終わる）</text><polyline class="l0" points="60.0,364.0 68.9,364.0 68.9,359.0 83.2,359.0 83.2,354.0 91.4,354.0 91.4,349.0 96.1,349.0 96.1,344.0 100.3,344.0 100.3,339.0 103.4,339.0 103.4,334.0 109.1,334.0 109.1,329.0 110.1,329.0 110.1,324.0 113.4,324.0 113.4,319.0 114.5,319.0 114.5,314.0 118.7,314.0 118.7,309.0 119.0,309.0 119.0,304.0 120.1,304.0 120.1,299.0 124.2,299.0 124.2,294.0 124.2,294.0 124.2,289.0 125.4,289.0 125.4,284.0 125.5,284.0 125.5,279.0 130.0,279.0 130.0,274.0 130.7,274.0 130.7,269.0 132.4,269.0 132.4,264.0 132.9,264.0 132.9,259.0 133.0,259.0 133.0,254.0 136.2,254.0 136.2,249.0 137.5,249.0 137.5,244.0 143.3,244.0 143.3,239.0 146.4,239.0 146.4,234.0 147.2,234.0 147.2,229.0 147.5,229.0 147.5,224.0 148.7,224.0 148.7,219.0 151.5,219.0 151.5,214.0 158.2,214.0 158.2,209.0 161.6,209.0 161.6,204.0 161.8,204.0 161.8,199.0 164.5,199.0 164.5,194.0 168.7,194.0 168.7,189.0 187.5,189.0 187.5,184.0 502.0,184.0"><title>M-spont_6801（閉じた腕・δ=0）: 複製 36 回。創始 585588 歩</title></polyline><polyline class="l0" points="60.0,364.0 79.4,364.0 79.4,359.0 103.0,359.0 103.0,354.0 113.5,354.0 113.5,349.0 122.4,349.0 122.4,344.0 125.9,344.0 125.9,339.0 126.5,339.0 126.5,334.0 139.8,334.0 139.8,329.0 145.5,329.0 145.5,324.0 148.3,324.0 148.3,319.0 149.1,319.0 149.1,314.0 149.5,314.0 149.5,309.0 152.7,309.0 152.7,304.0 155.0,304.0 155.0,299.0 155.3,299.0 155.3,294.0 156.0,294.0 156.0,289.0 159.0,289.0 159.0,284.0 162.1,284.0 162.1,279.0 164.4,279.0 164.4,274.0 169.9,274.0 169.9,269.0 170.7,269.0 170.7,264.0 171.4,264.0 171.4,259.0 171.5,259.0 171.5,254.0 173.9,254.0 173.9,249.0 177.5,249.0 177.5,244.0 179.7,244.0 179.7,239.0 182.4,239.0 182.4,234.0 192.8,234.0 192.8,229.0 193.2,229.0 193.2,224.0 194.4,224.0 194.4,219.0 194.5,219.0 194.5,214.0 198.9,214.0 198.9,209.0 201.3,209.0 201.3,204.0 203.9,204.0 203.9,199.0 204.1,199.0 204.1,194.0 227.2,194.0 227.2,189.0 231.2,189.0 231.2,184.0 387.9,184.0"><title>M-spont_6802（閉じた腕・δ=0）: 複製 36 回。創始 950611 歩</title></polyline><polyline class="l0" points="60.0,364.0 80.5,364.0 80.5,359.0 83.6,359.0 83.6,354.0 90.9,354.0 90.9,349.0 91.5,349.0 91.5,344.0 92.5,344.0 92.5,339.0 97.4,339.0 97.4,334.0 97.6,334.0 97.6,329.0 105.0,329.0 105.0,324.0 105.2,324.0 105.2,319.0 109.6,319.0 109.6,314.0 110.9,314.0 110.9,309.0 114.1,309.0 114.1,304.0 114.6,304.0 114.6,299.0 119.7,299.0 119.7,294.0 121.0,294.0 121.0,289.0 121.7,289.0 121.7,284.0 127.4,284.0 127.4,279.0 131.7,279.0 131.7,274.0 134.4,274.0 134.4,269.0 140.3,269.0 140.3,264.0 141.3,264.0 141.3,259.0 141.7,259.0 141.7,254.0 142.6,254.0 142.6,249.0 143.8,249.0 143.8,244.0 146.0,244.0 146.0,239.0 147.8,239.0 147.8,234.0 148.6,234.0 148.6,229.0 149.6,229.0 149.6,224.0 155.8,224.0 155.8,219.0 158.2,219.0 158.2,214.0 158.9,214.0 158.9,209.0 172.2,209.0 172.2,204.0 174.7,204.0 174.7,199.0 181.3,199.0 181.3,194.0 183.7,194.0 183.7,189.0 184.9,189.0 184.9,184.0 186.3,184.0 186.3,179.0 259.4,179.0 259.4,174.0 264.3,174.0 264.3,169.0 547.1,169.0"><title>M-spont_6803（閉じた腕・δ=0）: 複製 39 回。創始 441396 歩</title></polyline><polyline class="l0" points="60.0,364.0 65.0,364.0 65.0,359.0 69.0,359.0 69.0,354.0 81.3,354.0 81.3,349.0 83.9,349.0 83.9,344.0 89.2,344.0 89.2,339.0 93.1,339.0 93.1,334.0 96.1,334.0 96.1,329.0 105.8,329.0 105.8,324.0 106.2,324.0 106.2,319.0 107.5,319.0 107.5,314.0 109.6,314.0 109.6,309.0 110.4,309.0 110.4,304.0 112.0,304.0 112.0,299.0 113.5,299.0 113.5,294.0 116.3,294.0 116.3,289.0 120.3,289.0 120.3,284.0 122.0,284.0 122.0,279.0 122.5,279.0 122.5,274.0 126.0,274.0 126.0,269.0 126.2,269.0 126.2,264.0 127.1,264.0 127.1,259.0 135.5,259.0 135.5,254.0 138.2,254.0 138.2,249.0 139.8,249.0 139.8,244.0 145.7,244.0 145.7,239.0 146.0,239.0 146.0,234.0 148.4,234.0 148.4,229.0 149.1,229.0 149.1,224.0 152.8,224.0 152.8,219.0 156.2,219.0 156.2,214.0 159.4,214.0 159.4,209.0 160.0,209.0 160.0,204.0 160.5,204.0 160.5,199.0 160.8,199.0 160.8,194.0 162.7,194.0 162.7,189.0 166.3,189.0 166.3,184.0 167.4,184.0 167.4,179.0 199.6,179.0 199.6,174.0 227.1,174.0"><title>M-spont_6804（閉じた腕・δ=0）: 複製 38 回。創始 1465138 歩</title></polyline><polyline class="l0" points="60.0,364.0 110.7,364.0 110.7,359.0 119.0,359.0 119.0,354.0 125.2,354.0 125.2,349.0 152.0,349.0 152.0,344.0 157.2,344.0 157.2,339.0 159.1,339.0 159.1,334.0 174.0,334.0 174.0,329.0 183.9,329.0 183.9,324.0 185.9,324.0 185.9,319.0 186.3,319.0 186.3,314.0 188.0,314.0 188.0,309.0 189.4,309.0 189.4,304.0 191.0,304.0 191.0,299.0 193.2,299.0 193.2,294.0 196.8,294.0 196.8,289.0 198.2,289.0 198.2,284.0 200.4,284.0 200.4,279.0 210.2,279.0 210.2,274.0 211.2,274.0 211.2,269.0 216.5,269.0 216.5,264.0 217.6,264.0 217.6,259.0 219.5,259.0 219.5,254.0 220.6,254.0 220.6,249.0 221.8,249.0 221.8,244.0 222.0,244.0 222.0,239.0 222.5,239.0 222.5,234.0 222.6,234.0 222.6,229.0 228.2,229.0 228.2,224.0 231.5,224.0 231.5,219.0 234.9,219.0 234.9,214.0 242.2,214.0 242.2,209.0 243.2,209.0 243.2,204.0 244.4,204.0 244.4,199.0 259.5,199.0 259.5,194.0 259.8,194.0 259.8,189.0 268.7,189.0 268.7,184.0 277.8,184.0 277.8,179.0 303.2,179.0 303.2,174.0 410.0,174.0"><title>M-spont_6805（閉じた腕・δ=0）: 複製 38 回。創始 879985 歩</title></polyline><polyline class="l0" points="60.0,364.0 109.6,364.0 109.6,359.0 150.3,359.0 150.3,354.0 174.1,354.0 174.1,349.0 182.0,349.0 182.0,344.0 182.8,344.0 182.8,339.0 187.0,339.0 187.0,334.0 193.4,334.0 193.4,329.0 199.4,329.0 199.4,324.0 200.3,324.0 200.3,319.0 205.9,319.0 205.9,314.0 210.8,314.0 210.8,309.0 214.4,309.0 214.4,304.0 215.6,304.0 215.6,299.0 219.7,299.0 219.7,294.0 228.9,294.0 228.9,289.0 232.9,289.0 232.9,284.0 234.3,284.0 234.3,279.0 235.2,279.0 235.2,274.0 241.1,274.0 241.1,269.0 241.6,269.0 241.6,264.0 243.0,264.0 243.0,259.0 244.4,259.0 244.4,254.0 248.3,254.0 248.3,249.0 249.4,249.0 249.4,244.0 256.1,244.0 256.1,239.0 259.9,239.0 259.9,234.0 262.6,234.0 262.6,229.0 265.2,229.0 265.2,224.0 268.5,224.0 268.5,219.0 284.9,219.0 284.9,214.0 291.4,214.0 291.4,209.0 299.0,209.0 299.0,204.0 314.6,204.0 314.6,199.0 318.4,199.0 318.4,194.0 323.3,194.0 323.3,189.0 337.8,189.0 337.8,184.0 436.9,184.0 436.9,179.0 503.9,179.0"><title>M-spont_6806（閉じた腕・δ=0）: 複製 37 回。創始 579629 歩</title></polyline><polyline class="l0" points="60.0,364.0 75.3,364.0 75.3,359.0 113.5,359.0 113.5,354.0 117.5,354.0 117.5,349.0 120.2,349.0 120.2,344.0 130.1,344.0 130.1,339.0 135.4,339.0 135.4,334.0 139.2,334.0 139.2,329.0 140.3,329.0 140.3,324.0 144.8,324.0 144.8,319.0 146.3,319.0 146.3,314.0 149.7,314.0 149.7,309.0 150.9,309.0 150.9,304.0 151.3,304.0 151.3,299.0 152.8,299.0 152.8,294.0 155.3,294.0 155.3,289.0 157.0,289.0 157.0,284.0 157.3,284.0 157.3,279.0 157.5,279.0 157.5,274.0 158.1,274.0 158.1,269.0 158.7,269.0 158.7,264.0 161.7,264.0 161.7,259.0 165.3,259.0 165.3,254.0 166.4,254.0 166.4,249.0 168.9,249.0 168.9,244.0 172.4,244.0 172.4,239.0 177.7,239.0 177.7,234.0 181.3,234.0 181.3,229.0 183.9,229.0 183.9,224.0 189.5,224.0 189.5,219.0 196.2,219.0 196.2,214.0 201.2,214.0 201.2,209.0 213.9,209.0 213.9,204.0 215.3,204.0 215.3,199.0 235.0,199.0 235.0,194.0 266.3,194.0 266.3,189.0 298.7,189.0 298.7,184.0 553.6,184.0"><title>M-spont_6807（閉じた腕・δ=0）: 複製 36 回。創始 420522 歩</title></polyline><polyline class="l0" points="60.0,364.0 67.6,364.0 67.6,359.0 80.3,359.0 80.3,354.0 106.4,354.0 106.4,349.0 122.6,349.0 122.6,344.0 128.6,344.0 128.6,339.0 145.6,339.0 145.6,334.0 152.8,334.0 152.8,329.0 166.8,329.0 166.8,324.0 168.9,324.0 168.9,319.0 170.9,319.0 170.9,314.0 173.3,314.0 173.3,309.0 175.6,309.0 175.6,304.0 179.3,304.0 179.3,299.0 182.9,299.0 182.9,294.0 183.6,294.0 183.6,289.0 187.7,289.0 187.7,284.0 190.8,284.0 190.8,279.0 194.7,279.0 194.7,274.0 197.4,274.0 197.4,269.0 208.3,269.0 208.3,264.0 224.2,264.0 224.2,259.0 230.3,259.0 230.3,254.0 233.9,254.0 233.9,249.0 261.2,249.0 261.2,244.0 266.4,244.0 266.4,239.0 560.0,239.0"><title>M-spont_6808（閉じた腕・δ=0）: 複製 25 回。創始 392015 歩</title></polyline><polyline class="l0" points="60.0,364.0 66.8,364.0 66.8,359.0 74.3,359.0 74.3,354.0 82.3,354.0 82.3,349.0 102.4,349.0 102.4,344.0 116.0,344.0 116.0,339.0 117.9,339.0 117.9,334.0 121.7,334.0 121.7,329.0 122.0,329.0 122.0,324.0 124.2,324.0 124.2,319.0 124.4,319.0 124.4,314.0 138.3,314.0 138.3,309.0 140.1,309.0 140.1,304.0 140.4,304.0 140.4,299.0 141.1,299.0 141.1,294.0 147.2,294.0 147.2,289.0 150.0,289.0 150.0,284.0 150.6,284.0 150.6,279.0 154.5,279.0 154.5,274.0 155.8,274.0 155.8,269.0 158.5,269.0 158.5,264.0 158.9,264.0 158.9,259.0 161.0,259.0 161.0,254.0 162.0,254.0 162.0,249.0 163.3,249.0 163.3,244.0 166.7,244.0 166.7,239.0 168.9,239.0 168.9,234.0 175.1,234.0 175.1,229.0 176.4,229.0 176.4,224.0 179.5,224.0 179.5,219.0 181.3,219.0 181.3,214.0 181.8,214.0 181.8,209.0 188.0,209.0 188.0,204.0 189.4,204.0 189.4,199.0 194.0,199.0 194.0,194.0 194.1,194.0 194.1,189.0 198.9,189.0 198.9,184.0 201.2,184.0 201.2,179.0 217.5,179.0 217.5,174.0 263.3,174.0 263.3,169.0 268.9,169.0 268.9,164.0 560.0,164.0"><title>M-spont_6810（閉じた腕・δ=0）: 複製 40 回。創始 102275 歩</title></polyline><polyline class="l0" points="60.0,364.0 78.1,364.0 78.1,359.0 84.1,359.0 84.1,354.0 92.5,354.0 92.5,349.0 96.3,349.0 96.3,344.0 101.8,344.0 101.8,339.0 116.6,339.0 116.6,334.0 126.2,334.0 126.2,329.0 135.1,329.0 135.1,324.0 136.9,324.0 136.9,319.0 142.6,319.0 142.6,314.0 144.4,314.0 144.4,309.0 145.7,309.0 145.7,304.0 148.1,304.0 148.1,299.0 149.2,299.0 149.2,294.0 156.3,294.0 156.3,289.0 157.8,289.0 157.8,284.0 158.7,284.0 158.7,279.0 161.8,279.0 161.8,274.0 162.9,274.0 162.9,269.0 169.3,269.0 169.3,264.0 171.0,264.0 171.0,259.0 171.8,259.0 171.8,254.0 182.2,254.0 182.2,249.0 182.2,249.0 182.2,244.0 182.9,244.0 182.9,239.0 183.8,239.0 183.8,234.0 190.6,234.0 190.6,229.0 193.3,229.0 193.3,224.0 195.6,224.0 195.6,219.0 200.0,219.0 200.0,214.0 202.4,214.0 202.4,209.0 204.4,209.0 204.4,204.0 204.9,204.0 204.9,199.0 214.0,199.0 214.0,194.0 216.6,194.0 216.6,189.0 218.6,189.0 218.6,184.0 218.9,184.0 218.9,179.0 236.7,179.0 236.7,174.0 560.0,174.0"><title>M-spont_6811（閉じた腕・δ=0）: 複製 38 回。創始 103727 歩</title></polyline><polyline class="l0" points="60.0,364.0 87.4,364.0 87.4,359.0 92.8,359.0 92.8,354.0 99.7,354.0 99.7,349.0 112.4,349.0 112.4,344.0 112.7,344.0 112.7,339.0 120.0,339.0 120.0,334.0 121.0,334.0 121.0,329.0 123.4,329.0 123.4,324.0 128.4,324.0 128.4,319.0 133.7,319.0 133.7,314.0 134.0,314.0 134.0,309.0 135.2,309.0 135.2,304.0 135.9,304.0 135.9,299.0 140.6,299.0 140.6,294.0 142.5,294.0 142.5,289.0 143.2,289.0 143.2,284.0 146.3,284.0 146.3,279.0 153.9,279.0 153.9,274.0 155.0,274.0 155.0,269.0 162.0,269.0 162.0,264.0 163.1,264.0 163.1,259.0 163.7,259.0 163.7,254.0 164.6,254.0 164.6,249.0 166.8,249.0 166.8,244.0 170.0,244.0 170.0,239.0 176.0,239.0 176.0,234.0 179.2,234.0 179.2,229.0 180.9,229.0 180.9,224.0 187.8,224.0 187.8,219.0 188.3,219.0 188.3,214.0 188.6,214.0 188.6,209.0 191.0,209.0 191.0,204.0 191.3,204.0 191.3,199.0 192.4,199.0 192.4,194.0 194.4,194.0 194.4,189.0 196.6,189.0 196.6,184.0 207.2,184.0 207.2,179.0 208.2,179.0 208.2,174.0 257.9,174.0 257.9,169.0 263.9,169.0"><title>M-spont_6812（閉じた腕・δ=0）: 複製 39 回。創始 1347445 歩</title></polyline><polyline class="l1" points="60.0,364.0 63.2,364.0 63.2,359.0 110.6,359.0 110.6,354.0 114.4,354.0 114.4,349.0 121.8,349.0 121.8,344.0 136.0,344.0 136.0,339.0 138.9,339.0 138.9,334.0 140.6,334.0 140.6,329.0 143.4,329.0 143.4,324.0 159.8,324.0 159.8,319.0 164.2,319.0 164.2,314.0 165.5,314.0 165.5,309.0 167.8,309.0 167.8,304.0 168.1,304.0 168.1,299.0 169.3,299.0 169.3,294.0 174.5,294.0 174.5,289.0 177.5,289.0 177.5,284.0 179.8,284.0 179.8,279.0 183.1,279.0 183.1,274.0 184.3,274.0 184.3,269.0 184.6,269.0 184.6,264.0 187.1,264.0 187.1,259.0 188.1,259.0 188.1,254.0 188.4,254.0 188.4,249.0 189.5,249.0 189.5,244.0 193.5,244.0 193.5,239.0 197.8,239.0 197.8,234.0 199.5,234.0 199.5,229.0 209.3,229.0 209.3,224.0 215.0,224.0 215.0,219.0 216.1,219.0 216.1,214.0 217.1,214.0 217.1,209.0 218.6,209.0 218.6,204.0 219.6,204.0 219.6,199.0 228.6,199.0 228.6,194.0 231.9,194.0 231.9,189.0 237.5,189.0 237.5,184.0 238.2,184.0"><title>M-flow_6801（flow2）: 複製 36 回。創始 1429915 歩</title></polyline><circle class="d1" cx="238.2" cy="184.0" r="4"><title>M-flow_6801: 走行の終わり（創始から 570085 歩）で 36 回</title></circle><polyline class="l1" points="60.0,364.0 72.5,364.0 72.5,359.0 78.6,359.0 78.6,354.0 85.4,354.0 85.4,349.0 101.8,349.0 101.8,344.0 108.9,344.0 108.9,339.0 113.0,339.0 113.0,334.0 120.2,334.0 120.2,329.0 122.0,329.0 122.0,324.0 125.0,324.0 125.0,319.0 126.0,319.0 126.0,314.0 133.2,314.0 133.2,309.0 134.0,309.0 134.0,304.0 134.7,304.0 134.7,299.0 139.3,299.0 139.3,294.0 141.4,294.0 141.4,289.0 142.1,289.0 142.1,284.0 146.9,284.0 146.9,279.0 146.9,279.0 146.9,274.0 148.4,274.0 148.4,269.0 153.9,269.0 153.9,264.0 154.0,264.0 154.0,259.0 156.3,259.0 156.3,254.0 156.4,254.0 156.4,249.0 156.5,249.0 156.5,244.0 157.9,244.0 157.9,239.0 159.9,239.0 159.9,234.0 160.6,234.0 160.6,229.0 166.1,229.0 166.1,224.0 166.6,224.0 166.6,219.0 172.9,219.0 172.9,214.0 174.0,214.0 174.0,209.0 186.7,209.0 186.7,204.0 186.7,204.0 186.7,199.0 192.5,199.0 192.5,194.0 196.1,194.0 196.1,189.0 204.6,189.0 204.6,184.0 229.6,184.0 229.6,179.0 236.3,179.0 236.3,174.0 254.6,174.0 254.6,169.0 302.5,169.0 302.5,164.0 303.3,164.0 303.3,159.0 324.9,159.0"><title>M-flow_6802（flow2）: 複製 41 回。創始 1152370 歩</title></polyline><circle class="d1" cx="324.9" cy="159.0" r="4"><title>M-flow_6802: 走行の終わり（創始から 847630 歩）で 41 回</title></circle><polyline class="l1" points="60.0,364.0 98.7,364.0 98.7,359.0 103.6,359.0 103.6,354.0 125.1,354.0 125.1,349.0 130.0,349.0 130.0,344.0 134.2,344.0 134.2,339.0 146.8,339.0 146.8,334.0 149.2,334.0 149.2,329.0 154.8,329.0 154.8,324.0 159.3,324.0 159.3,319.0 160.1,319.0 160.1,314.0 161.8,314.0 161.8,309.0 165.6,309.0 165.6,304.0 166.2,304.0 166.2,299.0 169.8,299.0 169.8,294.0 171.5,294.0 171.5,289.0 171.9,289.0 171.9,284.0 176.5,284.0 176.5,279.0 180.1,279.0 180.1,274.0 184.5,274.0 184.5,269.0 185.8,269.0 185.8,264.0 189.1,264.0 189.1,259.0 192.0,259.0 192.0,254.0 193.0,254.0 193.0,249.0 195.2,249.0 195.2,244.0 199.5,244.0 199.5,239.0 200.5,239.0 200.5,234.0 202.3,234.0 202.3,229.0 207.0,229.0 207.0,224.0 208.5,224.0 208.5,219.0 210.3,219.0 210.3,214.0 213.0,214.0 213.0,209.0 223.9,209.0 223.9,204.0 224.9,204.0 224.9,199.0 229.1,199.0 229.1,194.0 230.6,194.0 230.6,189.0 230.6,189.0 230.6,184.0 235.0,184.0 235.0,179.0 235.4,179.0 235.4,174.0 236.6,174.0 236.6,169.0 250.4,169.0 250.4,164.0 273.7,164.0 273.7,159.0 311.7,159.0 311.7,154.0 318.3,154.0 318.3,149.0 337.3,149.0 337.3,144.0 406.4,144.0 406.4,139.0 411.6,139.0 411.6,134.0 436.1,134.0 436.1,129.0 442.0,129.0 442.0,124.0 445.1,124.0 445.1,119.0 454.9,119.0 454.9,114.0 472.6,114.0 472.6,109.0 483.5,109.0 483.5,104.0 545.5,104.0 545.5,99.0 554.7,99.0"><title>M-flow_6803（flow2）: 複製 53 回。創始 416955 歩</title></polyline><circle class="d1" cx="554.7" cy="99.0" r="4"><title>M-flow_6803: 走行の終わり（創始から 1583045 歩）で 53 回</title></circle><polyline class="l1" points="60.0,364.0 115.8,364.0 115.8,359.0 129.9,359.0 129.9,354.0 144.2,354.0 144.2,349.0 159.6,349.0 159.6,344.0 162.7,344.0 162.7,339.0 177.5,339.0 177.5,334.0 181.9,334.0 181.9,329.0 189.3,329.0 189.3,324.0 197.3,324.0 197.3,319.0 199.7,319.0 199.7,314.0 202.2,314.0 202.2,309.0 205.1,309.0 205.1,304.0 207.9,304.0 207.9,299.0 212.4,299.0 212.4,294.0 214.7,294.0 214.7,289.0 214.9,289.0 214.9,284.0 215.7,284.0 215.7,279.0 216.2,279.0 216.2,274.0 221.4,274.0 221.4,269.0 221.5,269.0 221.5,264.0 221.6,264.0 221.6,259.0 221.6,259.0 221.6,254.0 223.0,254.0 223.0,249.0 225.2,249.0 225.2,244.0 225.7,244.0 225.7,239.0 226.0,239.0 226.0,234.0 227.7,234.0 227.7,229.0 230.9,229.0 230.9,224.0 233.0,224.0 233.0,219.0 237.0,219.0 237.0,214.0 238.3,214.0 238.3,209.0 242.4,209.0 242.4,204.0 245.4,204.0 245.4,199.0 248.9,199.0 248.9,194.0 249.6,194.0 249.6,189.0 251.8,189.0 251.8,184.0 266.7,184.0 266.7,179.0 290.0,179.0 290.0,174.0 292.4,174.0 292.4,169.0 304.8,169.0 304.8,164.0 318.5,164.0"><title>M-flow_6804（flow2）: 複製 40 回。創始 1172959 歩</title></polyline><circle class="d1" cx="318.5" cy="164.0" r="4"><title>M-flow_6804: 走行の終わり（創始から 827041 歩）で 40 回</title></circle><polyline class="l1" points="60.0,364.0 69.1,364.0 69.1,359.0 88.6,359.0 88.6,354.0 98.6,354.0 98.6,349.0 109.4,349.0 109.4,344.0 121.9,344.0 121.9,339.0 122.7,339.0 122.7,334.0 129.4,334.0 129.4,329.0 145.2,329.0 145.2,324.0 156.8,324.0 156.8,319.0 159.2,319.0 159.2,314.0 169.2,314.0 169.2,309.0 169.5,309.0 169.5,304.0 169.5,304.0 169.5,299.0 173.9,299.0 173.9,294.0 174.0,294.0 174.0,289.0 180.1,289.0 180.1,284.0 180.5,284.0 180.5,279.0 181.1,279.0 181.1,274.0 184.5,274.0 184.5,269.0 184.8,269.0 184.8,264.0 187.8,264.0 187.8,259.0 192.6,259.0 192.6,254.0 196.4,254.0 196.4,249.0 197.4,249.0 197.4,244.0 204.7,244.0 204.7,239.0 207.7,239.0 207.7,234.0 211.3,234.0 211.3,229.0 213.7,229.0 213.7,224.0 214.3,224.0 214.3,219.0 216.7,219.0 216.7,214.0 221.9,214.0 221.9,209.0 226.4,209.0 226.4,204.0 241.1,204.0 241.1,199.0 243.2,199.0 243.2,194.0 245.8,194.0 245.8,189.0 247.1,189.0 247.1,184.0 262.7,184.0 262.7,179.0 267.2,179.0 267.2,174.0 272.6,174.0 272.6,169.0 279.9,169.0 279.9,164.0 292.3,164.0 292.3,159.0 303.6,159.0 303.6,154.0 313.4,154.0 313.4,149.0 330.3,149.0 330.3,144.0 337.6,144.0 337.6,139.0 343.6,139.0 343.6,134.0 406.2,134.0 406.2,129.0 450.7,129.0 450.7,124.0 481.4,124.0 481.4,119.0 485.2,119.0 485.2,114.0 489.6,114.0 489.6,109.0 495.3,109.0 495.3,104.0 496.0,104.0 496.0,99.0 501.6,99.0 501.6,94.0 503.2,94.0 503.2,89.0 520.1,89.0"><title>M-flow_6805（flow2）: 複製 55 回。創始 527726 歩</title></polyline><circle class="d1" cx="520.1" cy="89.0" r="4"><title>M-flow_6805: 走行の終わり（創始から 1472274 歩）で 55 回</title></circle><line class="l1" x1="72" x2="94" y1="76" y2="76"/><text x="100.0" y="80.0">M-flow（流れ・flow2）5 seed。点は走行の終わり</text><line class="l0" x1="72" x2="94" y1="94" y2="94"/><text x="100.0" y="98.0">M-spont（閉じた箱・1回目）11 seed</text><text x="356.9" y="214.0" class="m">閉じた腕: 25〜40 回で止まる</text><text x="403.8" y="74.0" class="m">流れの腕: 頭打ちの後も増える</text><text x="620.0" y="52.0" class="h">(b) 創始 + 8×10⁵ 歩より後の複製の速さ</text><text x="620.0" y="68.0" class="m">10⁵ 歩あたり。事前登録していない集計</text><line class="grid" x1="700.0" x2="700.0" y1="84" y2="358"/><text x="700.0" y="374.0" class="m" text-anchor="middle">0</text><line class="grid" x1="753.3" x2="753.3" y1="84" y2="358"/><text x="753.3" y="374.0" class="m" text-anchor="middle">1</text><line class="grid" x1="806.7" x2="806.7" y1="84" y2="358"/><text x="806.7" y="374.0" class="m" text-anchor="middle">2</text><line class="grid" x1="860.0" x2="860.0" y1="84" y2="358"/><text x="860.0" y="374.0" class="m" text-anchor="middle">3</text><line class="thr" x1="829.0" x2="829.0" y1="84" y2="358"/><text x="825.0" y="390.0" class="m" text-anchor="end">入れ替え 88·δ = 2.4</text><text x="620.0" y="98.0" class="m">M-flow 6803</text><circle class="d1" cx="781.7" cy="94.0" r="4.5"><title>M-flow_6803: 1.53 回 / 10⁵ 歩</title></circle><text x="620.0" y="122.5" class="m">M-flow 6805</text><circle class="d1" cx="803.1" cy="118.5" r="4.5"><title>M-flow_6805: 1.93 回 / 10⁵ 歩</title></circle><text x="620.0" y="147.1" class="m">M-spont 6801</text><circle class="d0" cx="700.0" cy="143.1" r="4.5"><title>M-spont_6801: 0.00 回 / 10⁵ 歩</title></circle><text x="620.0" y="171.6" class="m">M-spont 6802</text><circle class="d0" cx="700.0" cy="167.6" r="4.5"><title>M-spont_6802: 0.00 回 / 10⁵ 歩</title></circle><text x="620.0" y="196.2" class="m">M-spont 6803</text><circle class="d0" cx="700.0" cy="192.2" r="4.5"><title>M-spont_6803: 0.00 回 / 10⁵ 歩</title></circle><text x="620.0" y="220.7" class="m">M-spont 6805</text><circle class="d0" cx="700.0" cy="216.7" r="4.5"><title>M-spont_6805: 0.00 回 / 10⁵ 歩</title></circle><text x="620.0" y="245.3" class="m">M-spont 6806</text><circle class="d0" cx="743.0" cy="241.3" r="4.5"><title>M-spont_6806: 0.81 回 / 10⁵ 歩</title></circle><text x="620.0" y="269.8" class="m">M-spont 6807</text><circle class="d0" cx="700.0" cy="265.8" r="4.5"><title>M-spont_6807: 0.00 回 / 10⁵ 歩</title></circle><text x="620.0" y="294.4" class="m">M-spont 6808</text><circle class="d0" cx="700.0" cy="290.4" r="4.5"><title>M-spont_6808: 0.00 回 / 10⁵ 歩</title></circle><text x="620.0" y="318.9" class="m">M-spont 6810</text><circle class="d0" cx="700.0" cy="314.9" r="4.5"><title>M-spont_6810: 0.00 回 / 10⁵ 歩</title></circle><text x="620.0" y="343.5" class="m">M-spont 6811</text><circle class="d0" cx="700.0" cy="339.5" r="4.5"><title>M-spont_6811: 0.00 回 / 10⁵ 歩</title></circle><line class="axis" x1="700.0" x2="860.0" y1="358" y2="358"/></svg>