<svg xmlns="http://www.w3.org/2000/svg" viewBox="0 0 990 420" width="990" height="420"><rect width="990" height="420" fill="#fff"/><text x="20" y="24" font-size="15" font-weight="bold" font-family='Hiragino Sans, Noto Sans JP, Yu Gothic, sans-serif'>図3 閉じた系で何が起きたか（ρ=0.30・seed 5701）</text><text x="70" y="42" font-size="12" font-family='Hiragino Sans, Noto Sans JP, Yu Gothic, sans-serif'>(a) エネルギーの内訳。灰色の帯 t&lt;0 は熱浴が効いている準備段</text><text x="560" y="42" font-size="12" font-family='Hiragino Sans, Noto Sans JP, Yu Gothic, sans-serif'>(b) 塊が組み上がる時間（数平均。塊が無い時刻は空白）</text><rect x="70" y="50" width="57.14285714285714" height="260" fill="#f3f3f3"/><rect x="70" y="50" width="400" height="260" fill="none" stroke="#999" stroke-width="0.8"/><line x1="70" y1="50" x2="70" y2="310" stroke="#eee"/><text x="70" y="325" font-size="11" text-anchor="middle" font-family='Hiragino Sans, Noto Sans JP, Yu Gothic, sans-serif'>-50</text><line x1="127.14285714285714" y1="50" x2="127.14285714285714" y2="310" stroke="#eee"/><text x="127.14285714285714" y="325" font-size="11" text-anchor="middle" font-family='Hiragino Sans, Noto Sans JP, Yu Gothic, sans-serif'>0</text><line x1="184.28571428571428" y1="50" x2="184.28571428571428" y2="310" stroke="#eee"/><text x="184.28571428571428" y="325" font-size="11" text-anchor="middle" font-family='Hiragino Sans, Noto Sans JP, Yu Gothic, sans-serif'>50</text><line x1="241.42857142857142" y1="50" x2="241.42857142857142" y2="310" stroke="#eee"/><text x="241.42857142857142" y="325" font-size="11" text-anchor="middle" font-family='Hiragino Sans, Noto Sans JP, Yu Gothic, sans-serif'>100</text><line x1="298.57142857142856" y1="50" x2="298.57142857142856" y2="310" stroke="#eee"/><text x="298.57142857142856" y="325" font-size="11" text-anchor="middle" font-family='Hiragino Sans, Noto Sans JP, Yu Gothic, sans-serif'>150</text><line x1="355.7142857142857" y1="50" x2="355.7142857142857" y2="310" stroke="#eee"/><text x="355.7142857142857" y="325" font-size="11" text-anchor="middle" font-family='Hiragino Sans, Noto Sans JP, Yu Gothic, sans-serif'>200</text><line x1="412.85714285714283" y1="50" x2="412.85714285714283" y2="310" stroke="#eee"/><text x="412.85714285714283" y="325" font-size="11" text-anchor="middle" font-family='Hiragino Sans, Noto Sans JP, Yu Gothic, sans-serif'>250</text><line x1="470" y1="50" x2="470" y2="310" stroke="#eee"/><text x="470" y="325" font-size="11" text-anchor="middle" font-family='Hiragino Sans, Noto Sans JP, Yu Gothic, sans-serif'>300</text><line x1="70" y1="310" x2="470" y2="310" stroke="#eee"/><text x="65" y="314" font-size="11" text-anchor="end" font-family='Hiragino Sans, Noto Sans JP, Yu Gothic, sans-serif'>-2</text><line x1="70" y1="272.8571428571429" x2="470" y2="272.8571428571429" stroke="#eee"/><text x="65" y="276.8571428571429" font-size="11" text-anchor="end" font-family='Hiragino Sans, Noto Sans JP, Yu Gothic, sans-serif'>-1.5</text><line x1="70" y1="235.71428571428572" x2="470" y2="235.71428571428572" stroke="#eee"/><text x="65" y="239.71428571428572" font-size="11" text-anchor="end" font-family='Hiragino Sans, Noto Sans JP, Yu Gothic, sans-serif'>-1</text><line x1="70" y1="198.57142857142858" x2="470" y2="198.57142857142858" stroke="#eee"/><text x="65" y="202.57142857142858" font-size="11" text-anchor="end" font-family='Hiragino Sans, Noto Sans JP, Yu Gothic, sans-serif'>-0.5</text><line x1="70" y1="161.42857142857144" x2="470" y2="161.42857142857144" stroke="#eee"/><text x="65" y="165.42857142857144" font-size="11" text-anchor="end" font-family='Hiragino Sans, Noto Sans JP, Yu Gothic, sans-serif'>0</text><line x1="70" y1="124.28571428571428" x2="470" y2="124.28571428571428" stroke="#eee"/><text x="65" y="128.28571428571428" font-size="11" text-anchor="end" font-family='Hiragino Sans, Noto Sans JP, Yu Gothic, sans-serif'>0.5</text><line x1="70" y1="87.14285714285717" x2="470" y2="87.14285714285717" stroke="#eee"/><text x="65" y="91.14285714285717" font-size="11" text-anchor="end" font-family='Hiragino Sans, Noto Sans JP, Yu Gothic, sans-serif'>1</text><line x1="70" y1="50" x2="470" y2="50" stroke="#eee"/><text x="65" y="54" font-size="11" text-anchor="end" font-family='Hiragino Sans, Noto Sans JP, Yu Gothic, sans-serif'>1.5</text><text x="270" y="342" font-size="12" text-anchor="middle" font-family='Hiragino Sans, Noto Sans JP, Yu Gothic, sans-serif'>t（τ）</text><text x="26" y="180" font-size="12" text-anchor="middle" transform="rotate(-90 26 180)" font-family='Hiragino Sans, Noto Sans JP, Yu Gothic, sans-serif'>1 粒子あたり（μ²/σ³）</text><text x="98.57142857142857" y="64" font-size="11" text-anchor="middle" fill="#555" font-family='Hiragino Sans, Noto Sans JP, Yu Gothic, sans-serif'>準備段（熱浴）</text><path d="M70.0 148.1L71.1 148.1L72.3 148.1L73.4 148.1L74.6 148.1L75.7 148.1L76.9 148.1L78.0 148.1L79.1 148.1L80.3 148.1L81.4 148.1L82.6 148.1L83.7 148.1L84.9 148.1L86.0 148.1L87.1 148.1L88.3 148.1L89.4 148.1L90.6 148.1L91.7 148.1L92.9 148.1L94.0 148.1L95.1 148.1L96.3 148.1L97.4 148.1L98.6 148.1L99.7 148.1L100.9 148.1L102.0 148.1L103.1 148.1L104.3 148.1L105.4 148.1L106.6 148.1L107.7 148.1L108.9 148.1L110.0 148.1L111.1 148.1L112.3 148.1L113.4 148.1L114.6 148.1L115.7 148.1L116.9 148.1L118.0 148.1L119.1 148.1L120.3 148.1L121.4 148.1L122.6 148.1L123.7 148.1L124.9 148.1L126.0 148.1L127.1 148.1L127.1 148.1L128.3 148.3L129.4 147.5L130.6 147.7L131.7 147.8L132.9 147.6L134.0 147.5L135.1 147.6L136.3 147.8L137.4 147.5L138.6 147.8L139.7 148.1L140.9 147.8L142.0 147.9L143.1 148.2L144.3 148.0L145.4 147.5L146.6 147.4L147.7 148.0L148.9 147.5L150.0 148.5L151.1 147.2L152.3 147.8L153.4 147.6L154.6 147.5L155.7 148.1L156.9 147.2L158.0 148.1L159.1 147.0L160.3 148.5L161.4 147.7L162.6 147.4L163.7 147.7L164.9 147.5L166.0 147.7L167.1 147.5L168.3 147.5L169.4 147.1L170.6 147.7L171.7 147.7L172.9 148.2L174.0 147.6L175.1 147.7L176.3 147.7L177.4 147.4L178.6 147.7L179.7 148.1L180.9 147.5L182.0 147.8L183.1 147.7L184.3 146.8L185.4 148.6L186.6 147.8L187.7 147.4L188.9 147.6L190.0 147.6L191.1 147.9L192.3 148.0L193.4 148.1L194.6 147.4L195.7 147.4L196.9 147.3L198.0 147.9L199.1 147.6L200.3 148.0L201.4 147.6L202.6 147.9L203.7 147.5L204.9 147.9L206.0 147.3L207.1 147.6L208.3 147.6L209.4 147.6L210.6 147.8L211.7 147.6L212.9 147.4L214.0 146.9L215.1 147.5L216.3 147.8L217.4 147.5L218.6 147.2L219.7 147.6L220.9 147.6L222.0 147.4L223.1 147.6L224.3 147.2L225.4 147.2L226.6 147.7L227.7 147.3L228.9 147.6L230.0 146.7L231.1 147.0L232.3 147.5L233.4 147.2L234.6 146.9L235.7 146.6L236.9 147.2L238.0 146.9L239.1 147.0L240.3 146.9L241.4 146.9L242.6 146.7L243.7 147.4L244.9 147.2L246.0 146.4L247.1 147.0L248.3 147.4L249.4 146.7L250.6 147.3L251.7 147.3L252.9 146.7L254.0 147.4L255.1 146.8L256.3 146.9L257.4 146.7L258.6 146.7L259.7 146.7L260.9 147.1L262.0 146.8L263.1 147.1L264.3 147.3L265.4 147.0L266.6 146.8L267.7 147.0L268.9 147.1L270.0 147.2L271.1 147.2L272.3 147.0L273.4 147.0L274.6 146.4L275.7 146.9L276.9 147.5L278.0 146.9L279.1 147.2L280.3 147.1L281.4 146.8L282.6 146.5L283.7 147.2L284.9 147.2L286.0 147.3L287.1 147.2L288.3 147.6L289.4 147.3L290.6 147.2L291.7 147.5L292.9 146.9L294.0 147.1L295.1 147.9L296.3 147.3L297.4 146.6L298.6 146.9L299.7 147.2L300.9 146.7L302.0 146.8L303.1 147.0L304.3 146.8L305.4 147.2L306.6 146.6L307.7 147.1L308.9 147.3L310.0 147.4L311.1 147.1L312.3 147.2L313.4 147.1L314.6 147.1L315.7 147.1L316.9 147.0L318.0 147.3L319.1 146.9L320.3 146.9L321.4 146.8L322.6 147.4L323.7 146.8L324.9 147.4L326.0 147.4L327.1 147.7L328.3 146.9L329.4 146.9L330.6 147.3L331.7 147.4L332.9 147.1L334.0 147.5L335.1 147.2L336.3 147.4L337.4 147.1L338.6 146.8L339.7 147.5L340.9 147.6L342.0 147.7L343.1 146.9L344.3 147.3L345.4 147.2L346.6 147.3L347.7 147.3L348.9 147.2L350.0 147.6L351.1 147.4L352.3 146.8L353.4 146.5L354.6 147.6L355.7 147.0L356.9 146.7L358.0 146.4L359.1 147.1L360.3 147.7L361.4 147.1L362.6 146.7L363.7 147.0L364.9 146.5L366.0 147.0L367.1 147.5L368.3 146.6L369.4 147.2L370.6 146.4L371.7 147.5L372.9 147.1L374.0 146.8L375.1 147.3L376.3 147.3L377.4 147.2L378.6 147.3L379.7 147.4L380.9 146.9L382.0 146.9L383.1 148.1L384.3 147.7L385.4 146.4L386.6 146.8L387.7 147.1L388.9 147.0L390.0 147.5L391.1 147.4L392.3 147.0L393.4 147.0L394.6 147.3L395.7 147.5L396.9 147.5L398.0 147.1L399.1 147.2L400.3 147.6L401.4 147.7L402.6 147.1L403.7 147.2L404.9 147.7L406.0 147.5L407.1 147.5L408.3 147.0L409.4 147.5L410.6 147.3L411.7 147.0L412.9 146.6L414.0 147.1L415.1 147.2L416.3 146.7L417.4 147.1L418.6 147.4L419.7 147.7L420.9 148.0L422.0 146.6L423.1 147.5L424.3 147.2L425.4 147.0L426.6 147.0L427.7 147.0L428.9 147.5L430.0 147.9L431.1 146.9L432.3 147.9L433.4 147.4L434.6 147.5L435.7 147.1L436.9 146.1L438.0 146.8L439.1 147.2L440.3 146.8L441.4 147.3L442.6 147.3L443.7 147.1L444.9 147.8L446.0 147.3L447.1 147.3L448.3 147.1L449.4 147.5L450.6 146.9L451.7 147.3L452.9 147.3L454.0 147.3L455.1 147.0L456.3 147.3L457.4 147.5L458.6 147.2L459.7 147.1L460.9 146.9L462.0 146.6L463.1 147.1L464.3 147.0L465.4 147.2L466.6 147.4L467.7 146.8L468.9 147.4" fill="none" stroke="#D55E00" stroke-width="1.6"/><path d="M70.0 133.0L71.1 217.0L72.3 238.4L73.4 250.3L74.6 256.3L75.7 262.0L76.9 264.5L78.0 267.7L79.1 269.7L80.3 270.6L81.4 272.0L82.6 273.4L83.7 274.3L84.9 275.1L86.0 275.6L87.1 276.2L88.3 276.4L89.4 277.0L90.6 277.1L91.7 277.2L92.9 278.0L94.0 277.4L95.1 277.5L96.3 277.9L97.4 278.8L98.6 279.7L99.7 279.4L100.9 279.3L102.0 279.3L103.1 279.4L104.3 279.9L105.4 279.7L106.6 279.1L107.7 280.7L108.9 280.0L110.0 280.0L111.1 279.9L112.3 280.0L113.4 280.4L114.6 281.6L115.7 281.4L116.9 281.2L118.0 280.3L119.1 281.2L120.3 280.7L121.4 280.9L122.6 281.6L123.7 282.0L124.9 281.8L126.0 281.6L127.1 280.3L127.1 280.3L128.3 280.1L129.4 280.9L130.6 280.7L131.7 280.6L132.9 280.8L134.0 280.9L135.1 280.8L136.3 280.6L137.4 280.9L138.6 280.6L139.7 280.4L140.9 280.6L142.0 280.5L143.1 280.2L144.3 280.4L145.4 280.9L146.6 281.0L147.7 280.4L148.9 280.9L150.0 280.0L151.1 281.2L152.3 280.6L153.4 280.8L154.6 280.9L155.7 280.3L156.9 281.2L158.0 280.3L159.1 281.4L160.3 279.9L161.4 280.7L162.6 281.0L163.7 280.7L164.9 280.9L166.0 280.7L167.1 280.9L168.3 281.0L169.4 281.3L170.6 280.7L171.7 280.8L172.9 280.2L174.0 280.8L175.1 280.8L176.3 280.7L177.4 281.0L178.6 280.7L179.7 280.3L180.9 280.9L182.0 280.6L183.1 280.7L184.3 281.6L185.4 279.9L186.6 280.6L187.7 281.0L188.9 280.8L190.0 280.9L191.1 280.5L192.3 280.4L193.4 280.3L194.6 281.1L195.7 281.1L196.9 281.1L198.0 280.6L199.1 280.8L200.3 280.4L201.4 280.8L202.6 280.5L203.7 280.9L204.9 280.6L206.0 281.1L207.1 280.8L208.3 280.8L209.4 280.8L210.6 280.6L211.7 280.9L212.9 281.0L214.0 281.5L215.1 281.0L216.3 280.6L217.4 280.9L218.6 281.2L219.7 280.8L220.9 280.8L222.0 281.0L223.1 280.8L224.3 281.2L225.4 281.3L226.6 280.7L227.7 281.1L228.9 280.8L230.0 281.7L231.1 281.4L232.3 280.9L233.4 281.3L234.6 281.5L235.7 281.8L236.9 281.2L238.0 281.5L239.1 281.5L240.3 281.5L241.4 281.5L242.6 281.7L243.7 281.0L244.9 281.2L246.0 282.0L247.1 281.4L248.3 281.1L249.4 281.7L250.6 281.1L251.7 281.1L252.9 281.7L254.0 281.1L255.1 281.6L256.3 281.5L257.4 281.7L258.6 281.8L259.7 281.8L260.9 281.3L262.0 281.6L263.1 281.3L264.3 281.1L265.4 281.5L266.6 281.7L267.7 281.4L268.9 281.3L270.0 281.3L271.1 281.2L272.3 281.4L273.4 281.4L274.6 282.0L275.7 281.5L276.9 280.9L278.0 281.5L279.1 281.2L280.3 281.3L281.4 281.7L282.6 281.9L283.7 281.2L284.9 281.2L286.0 281.1L287.1 281.2L288.3 280.8L289.4 281.1L290.6 281.2L291.7 280.9L292.9 281.6L294.0 281.3L295.1 280.5L296.3 281.1L297.4 281.8L298.6 281.5L299.7 281.2L300.9 281.7L302.0 281.6L303.1 281.4L304.3 281.6L305.4 281.2L306.6 281.8L307.7 281.3L308.9 281.1L310.0 281.0L311.1 281.3L312.3 281.2L313.4 281.3L314.6 281.4L315.7 281.3L316.9 281.4L318.0 281.1L319.1 281.5L320.3 281.5L321.4 281.6L322.6 281.0L323.7 281.6L324.9 281.1L326.0 281.0L327.1 280.7L328.3 281.5L329.4 281.5L330.6 281.1L331.7 281.1L332.9 281.3L334.0 280.9L335.1 281.3L336.3 281.0L337.4 281.3L338.6 281.6L339.7 281.0L340.9 280.8L342.0 280.7L343.1 281.5L344.3 281.1L345.4 281.2L346.6 281.1L347.7 281.1L348.9 281.2L350.0 280.9L351.1 281.0L352.3 281.6L353.4 281.9L354.6 280.8L355.7 281.4L356.9 281.7L358.0 282.0L359.1 281.4L360.3 280.7L361.4 281.4L362.6 281.7L363.7 281.4L364.9 281.9L366.0 281.4L367.1 280.9L368.3 281.8L369.4 281.2L370.6 282.0L371.7 280.9L372.9 281.3L374.0 281.7L375.1 281.1L376.3 281.1L377.4 281.2L378.6 281.1L379.7 281.1L380.9 281.5L382.0 281.5L383.1 280.3L384.3 280.8L385.4 282.0L386.6 281.6L387.7 281.4L388.9 281.4L390.0 280.9L391.1 281.0L392.3 281.5L393.4 281.4L394.6 281.2L395.7 281.0L396.9 281.0L398.0 281.3L399.1 281.2L400.3 280.8L401.4 280.7L402.6 281.3L403.7 281.2L404.9 280.8L406.0 280.9L407.1 280.9L408.3 281.4L409.4 280.9L410.6 281.1L411.7 281.5L412.9 281.8L414.0 281.3L415.1 281.2L416.3 281.7L417.4 281.4L418.6 281.0L419.7 280.7L420.9 280.4L422.0 281.9L423.1 281.0L424.3 281.2L425.4 281.5L426.6 281.4L427.7 281.4L428.9 280.9L430.0 280.5L431.1 281.5L432.3 280.5L433.4 281.1L434.6 280.9L435.7 281.3L436.9 282.3L438.0 281.7L439.1 281.2L440.3 281.6L441.4 281.2L442.6 281.1L443.7 281.3L444.9 280.6L446.0 281.1L447.1 281.1L448.3 281.3L449.4 280.9L450.6 281.5L451.7 281.1L452.9 281.1L454.0 281.1L455.1 281.4L456.3 281.1L457.4 281.0L458.6 281.2L459.7 281.3L460.9 281.5L462.0 281.8L463.1 281.3L464.3 281.5L465.4 281.2L466.6 281.0L467.7 281.6L468.9 281.0" fill="none" stroke="#0072B2" stroke-width="1.6"/><path d="M70.0 119.6L71.1 203.6L72.3 225.0L73.4 236.9L74.6 243.0L75.7 248.6L76.9 251.2L78.0 254.3L79.1 256.4L80.3 257.2L81.4 258.6L82.6 260.0L83.7 260.9L84.9 261.7L86.0 262.2L87.1 262.8L88.3 263.0L89.4 263.7L90.6 263.7L91.7 263.8L92.9 264.6L94.0 264.0L95.1 264.2L96.3 264.5L97.4 265.4L98.6 266.3L99.7 266.0L100.9 266.0L102.0 265.9L103.1 266.0L104.3 266.6L105.4 266.3L106.6 265.7L107.7 267.3L108.9 266.6L110.0 266.6L111.1 266.6L112.3 266.6L113.4 267.0L114.6 268.3L115.7 268.0L116.9 267.9L118.0 267.0L119.1 267.9L120.3 267.3L121.4 267.5L122.6 268.3L123.7 268.6L124.9 268.4L126.0 268.2L127.1 267.0L127.1 267.0L128.3 267.0L129.4 267.0L130.6 267.0L131.7 267.0L132.9 267.0L134.0 267.0L135.1 267.0L136.3 267.0L137.4 267.0L138.6 267.0L139.7 267.0L140.9 267.0L142.0 267.0L143.1 267.0L144.3 267.0L145.4 267.0L146.6 267.0L147.7 267.0L148.9 267.0L150.0 267.0L151.1 267.0L152.3 267.0L153.4 267.0L154.6 267.0L155.7 267.0L156.9 267.0L158.0 267.0L159.1 267.0L160.3 267.0L161.4 267.0L162.6 267.0L163.7 267.0L164.9 267.0L166.0 267.0L167.1 267.0L168.3 267.0L169.4 267.0L170.6 267.0L171.7 267.0L172.9 267.0L174.0 267.0L175.1 267.0L176.3 267.0L177.4 267.0L178.6 267.0L179.7 267.0L180.9 267.0L182.0 267.0L183.1 267.0L184.3 267.0L185.4 267.0L186.6 267.0L187.7 267.0L188.9 267.0L190.0 267.0L191.1 267.0L192.3 267.0L193.4 267.0L194.6 267.0L195.7 267.0L196.9 267.0L198.0 267.0L199.1 267.0L200.3 267.0L201.4 267.0L202.6 267.0L203.7 267.0L204.9 267.0L206.0 267.0L207.1 267.0L208.3 267.0L209.4 267.0L210.6 267.0L211.7 267.0L212.9 267.0L214.0 267.0L215.1 267.0L216.3 267.0L217.4 267.0L218.6 267.0L219.7 267.0L220.9 267.0L222.0 267.0L223.1 267.0L224.3 267.0L225.4 267.0L226.6 267.0L227.7 267.0L228.9 267.0L230.0 267.0L231.1 267.0L232.3 267.0L233.4 267.0L234.6 267.0L235.7 267.0L236.9 267.0L238.0 267.0L239.1 267.0L240.3 267.0L241.4 267.0L242.6 267.0L243.7 267.0L244.9 267.0L246.0 267.0L247.1 267.0L248.3 267.0L249.4 267.0L250.6 267.0L251.7 267.0L252.9 267.0L254.0 267.0L255.1 267.0L256.3 267.0L257.4 267.0L258.6 267.0L259.7 267.0L260.9 267.0L262.0 267.0L263.1 267.0L264.3 267.0L265.4 267.0L266.6 267.0L267.7 267.0L268.9 267.0L270.0 267.0L271.1 267.0L272.3 267.0L273.4 267.0L274.6 267.0L275.7 267.0L276.9 267.0L278.0 267.0L279.1 267.0L280.3 267.0L281.4 267.0L282.6 267.0L283.7 267.0L284.9 267.0L286.0 267.0L287.1 267.0L288.3 267.0L289.4 267.0L290.6 267.0L291.7 267.0L292.9 267.0L294.0 267.0L295.1 267.0L296.3 267.0L297.4 267.0L298.6 267.0L299.7 267.0L300.9 267.0L302.0 267.0L303.1 267.0L304.3 267.0L305.4 267.0L306.6 267.0L307.7 267.0L308.9 267.0L310.0 267.0L311.1 267.0L312.3 267.0L313.4 267.0L314.6 267.0L315.7 267.0L316.9 267.0L318.0 267.0L319.1 267.0L320.3 267.0L321.4 267.0L322.6 267.0L323.7 267.0L324.9 267.0L326.0 267.0L327.1 267.0L328.3 267.0L329.4 267.0L330.6 267.0L331.7 267.0L332.9 267.0L334.0 267.0L335.1 267.0L336.3 267.0L337.4 267.0L338.6 267.0L339.7 267.0L340.9 267.0L342.0 267.0L343.1 267.0L344.3 267.0L345.4 267.0L346.6 267.0L347.7 267.0L348.9 267.0L350.0 267.0L351.1 267.0L352.3 267.0L353.4 267.0L354.6 267.0L355.7 267.0L356.9 267.0L358.0 267.0L359.1 267.0L360.3 267.0L361.4 267.0L362.6 267.0L363.7 267.0L364.9 267.0L366.0 267.0L367.1 267.0L368.3 267.0L369.4 267.0L370.6 267.0L371.7 267.0L372.9 267.0L374.0 267.0L375.1 267.0L376.3 267.0L377.4 267.0L378.6 267.0L379.7 267.0L380.9 267.0L382.0 267.0L383.1 267.0L384.3 267.0L385.4 267.0L386.6 267.0L387.7 267.0L388.9 267.0L390.0 267.0L391.1 267.0L392.3 267.0L393.4 267.0L394.6 267.0L395.7 267.0L396.9 267.0L398.0 267.0L399.1 267.0L400.3 267.0L401.4 267.0L402.6 267.0L403.7 267.0L404.9 267.0L406.0 267.0L407.1 267.0L408.3 267.0L409.4 267.0L410.6 267.0L411.7 267.0L412.9 267.0L414.0 267.0L415.1 267.0L416.3 267.0L417.4 267.0L418.6 267.0L419.7 267.0L420.9 267.0L422.0 267.0L423.1 267.0L424.3 267.0L425.4 267.0L426.6 267.0L427.7 267.0L428.9 267.0L430.0 267.0L431.1 267.0L432.3 267.0L433.4 267.0L434.6 267.0L435.7 267.0L436.9 267.0L438.0 267.0L439.1 267.0L440.3 267.0L441.4 267.0L442.6 267.0L443.7 267.0L444.9 267.0L446.0 267.0L447.1 267.0L448.3 267.0L449.4 267.0L450.6 267.0L451.7 267.0L452.9 267.0L454.0 267.0L455.1 267.0L456.3 267.0L457.4 267.0L458.6 267.0L459.7 267.0L460.9 267.0L462.0 267.0L463.1 267.0L464.3 267.0L465.4 267.0L466.6 267.0L467.7 267.0L468.9 267.0" fill="none" stroke="#222" stroke-width="1.6"/><path d="M70.0 148.1L71.1 90.5L72.3 88.6L73.4 88.0L74.6 86.8L75.7 88.1L76.9 87.8L78.0 86.5L79.1 87.4L80.3 86.8L81.4 87.9L82.6 85.9L83.7 86.3L84.9 86.0L86.0 85.9L87.1 86.8L88.3 87.5L89.4 85.5L90.6 87.0L91.7 85.9L92.9 87.2L94.0 87.5L95.1 87.4L96.3 88.5L97.4 87.8L98.6 87.5L99.7 87.7L100.9 88.9L102.0 86.2L103.1 88.5L104.3 87.5L105.4 85.6L106.6 84.9L107.7 85.1L108.9 86.8L110.0 87.5L111.1 89.2L112.3 90.3L113.4 85.1L114.6 86.9L115.7 86.4L116.9 88.2L118.0 87.7L119.1 87.8L120.3 89.3L121.4 87.2L122.6 86.7L123.7 86.6L124.9 87.9L126.0 89.4L127.1 87.6L128.3 87.7L129.4 86.9L130.6 86.4L131.7 87.9L132.9 86.2L134.0 87.7L135.1 86.6L136.3 86.9L137.4 87.5L138.6 85.1L139.7 87.7L140.9 86.5L142.0 85.8L143.1 86.8L144.3 86.5L145.4 85.7L146.6 88.0L147.7 87.2L148.9 88.1L150.0 88.8L151.1 87.5L152.3 88.0L153.4 87.2L154.6 87.6L155.7 87.4L156.9 87.4L158.0 86.1L159.1 89.0L160.3 87.0L161.4 87.6L162.6 85.4L163.7 86.5L164.9 87.3L166.0 86.3L167.1 88.1L168.3 88.9L169.4 88.0L170.6 88.2L171.7 87.5L172.9 88.7L174.0 87.2L175.1 85.4L176.3 86.5L177.4 86.1L178.6 84.4L179.7 85.9L180.9 86.3L182.0 86.3L183.1 86.6L184.3 84.2L185.4 86.4L186.6 86.3L187.7 88.2L188.9 85.7L190.0 86.1L191.1 86.1L192.3 87.2L193.4 86.2L194.6 87.0L195.7 86.3L196.9 89.2L198.0 85.0L199.1 86.4L200.3 86.4L201.4 85.9L202.6 86.4L203.7 85.9L204.9 86.4L206.0 86.1L207.1 87.0L208.3 88.7L209.4 88.0L210.6 87.4L211.7 85.9L212.9 88.7L214.0 87.5L215.1 87.8L216.3 86.7L217.4 87.1L218.6 89.2L219.7 87.2L220.9 87.6L222.0 88.0L223.1 86.8L224.3 88.2L225.4 88.1L226.6 88.5L227.7 88.8L228.9 86.3L230.0 87.3L231.1 86.4L232.3 87.8L233.4 88.3L234.6 84.8L235.7 86.4L236.9 88.3L238.0 85.5L239.1 85.5L240.3 87.1L241.4 87.5L242.6 86.2L243.7 85.8L244.9 85.6L246.0 85.0L247.1 86.2L248.3 87.3L249.4 85.4L250.6 86.6L251.7 86.6L252.9 85.9L254.0 87.2L255.1 86.9L256.3 84.1L257.4 86.8L258.6 86.5L259.7 86.4L260.9 88.0L262.0 89.0L263.1 86.4L264.3 86.2L265.4 84.6L266.6 86.7L267.7 86.3L268.9 86.7L270.0 85.3L271.1 87.1L272.3 86.7L273.4 85.3L274.6 82.9L275.7 84.9L276.9 84.8L278.0 86.1L279.1 85.9L280.3 85.7L281.4 87.2L282.6 86.9L283.7 86.8L284.9 86.4L286.0 85.3L287.1 85.9L288.3 86.1L289.4 86.0L290.6 85.8L291.7 87.6L292.9 87.8L294.0 86.3L295.1 88.1L296.3 86.8L297.4 87.2L298.6 84.6L299.7 86.5L300.9 88.6L302.0 87.7L303.1 85.8L304.3 84.6L305.4 86.4L306.6 88.0L307.7 86.5L308.9 87.3L310.0 89.0L311.1 88.2L312.3 86.8L313.4 86.9L314.6 87.8L315.7 87.1L316.9 89.6L318.0 85.9L319.1 86.1L320.3 87.2L321.4 89.5L322.6 88.2L323.7 87.8L324.9 85.8L326.0 87.3L327.1 88.4L328.3 86.0L329.4 88.0L330.6 86.8L331.7 85.9L332.9 86.3L334.0 84.1L335.1 85.2L336.3 86.1L337.4 86.3L338.6 85.7L339.7 87.0L340.9 84.5L342.0 84.7L343.1 86.5L344.3 87.9L345.4 87.2L346.6 87.8L347.7 87.5L348.9 86.2L350.0 86.7L351.1 84.5L352.3 86.3L353.4 86.1L354.6 87.8L355.7 84.0L356.9 87.3L358.0 86.9L359.1 87.4L360.3 85.6L361.4 85.9L362.6 85.9L363.7 88.2L364.9 86.7L366.0 88.1L367.1 86.7L368.3 87.5L369.4 86.8L370.6 86.2L371.7 88.4L372.9 87.4L374.0 87.0L375.1 88.4L376.3 86.5L377.4 87.5L378.6 87.3L379.7 86.0L380.9 86.6L382.0 87.5L383.1 86.4L384.3 86.5L385.4 86.5L386.6 86.5L387.7 87.4L388.9 87.1L390.0 87.3L391.1 85.0L392.3 87.6L393.4 87.0L394.6 84.9L395.7 84.2L396.9 85.8L398.0 87.7L399.1 86.1L400.3 84.5L401.4 84.1L402.6 86.0L403.7 85.5L404.9 86.9L406.0 86.8L407.1 85.1L408.3 86.8L409.4 85.2L410.6 86.5L411.7 84.8L412.9 85.1L414.0 85.0L415.1 86.7L416.3 85.7L417.4 86.0L418.6 84.1L419.7 86.4L420.9 86.3L422.0 85.9L423.1 86.8L424.3 88.2L425.4 86.8L426.6 86.8L427.7 86.2L428.9 87.6L430.0 86.5L431.1 87.9L432.3 88.8L433.4 85.5L434.6 86.9L435.7 86.0L436.9 85.6L438.0 86.5L439.1 84.8L440.3 86.2L441.4 86.3L442.6 87.3L443.7 85.0L444.9 87.1L446.0 86.6L447.1 87.4L448.3 85.8L449.4 87.0L450.6 84.4L451.7 86.9L452.9 86.7L454.0 87.5L455.1 85.7L456.3 85.9L457.4 85.3L458.6 85.4L459.7 85.8L460.9 86.1L462.0 85.6L463.1 85.6L464.3 86.3L465.4 86.7L466.6 87.2L467.7 88.4L468.9 86.5" fill="none" stroke="#D55E00" stroke-width="1.6" stroke-dasharray="5 3"/><path d="M70.0 133.0L71.1 190.6L72.3 192.4L73.4 193.1L74.6 194.3L75.7 193.0L76.9 193.3L78.0 194.6L79.1 193.7L80.3 194.3L81.4 193.2L82.6 195.1L83.7 194.8L84.9 195.1L86.0 195.2L87.1 194.3L88.3 193.6L89.4 195.5L90.6 194.0L91.7 195.2L92.9 193.9L94.0 193.6L95.1 193.7L96.3 192.6L97.4 193.3L98.6 193.6L99.7 193.4L100.9 192.2L102.0 194.9L103.1 192.6L104.3 193.5L105.4 195.5L106.6 196.2L107.7 196.0L108.9 194.3L110.0 193.5L111.1 191.8L112.3 190.7L113.4 196.0L114.6 194.1L115.7 194.7L116.9 192.9L118.0 193.3L119.1 193.3L120.3 191.8L121.4 193.9L122.6 194.4L123.7 194.5L124.9 193.2L126.0 191.6L127.1 193.5L128.3 193.4L129.4 194.1L130.6 194.6L131.7 193.2L132.9 194.9L134.0 193.4L135.1 194.5L136.3 194.1L137.4 193.5L138.6 196.0L139.7 193.3L140.9 194.6L142.0 195.3L143.1 194.3L144.3 194.6L145.4 195.4L146.6 193.1L147.7 193.9L148.9 193.0L150.0 192.3L151.1 193.6L152.3 193.1L153.4 193.9L154.6 193.4L155.7 193.7L156.9 193.7L158.0 195.0L159.1 192.1L160.3 194.1L161.4 193.5L162.6 195.6L163.7 194.5L164.9 193.8L166.0 194.8L167.1 193.0L168.3 192.2L169.4 193.0L170.6 192.9L171.7 193.6L172.9 192.4L174.0 193.9L175.1 195.7L176.3 194.6L177.4 195.0L178.6 196.7L179.7 195.2L180.9 194.8L182.0 194.8L183.1 194.4L184.3 196.9L185.4 194.7L186.6 194.8L187.7 192.8L188.9 195.3L190.0 195.0L191.1 195.0L192.3 193.9L193.4 194.9L194.6 194.1L195.7 194.8L196.9 191.8L198.0 196.1L199.1 194.7L200.3 194.7L201.4 195.1L202.6 194.7L203.7 195.2L204.9 194.7L206.0 195.0L207.1 194.1L208.3 192.4L209.4 193.0L210.6 193.7L211.7 195.1L212.9 192.4L214.0 193.6L215.1 193.3L216.3 194.4L217.4 194.0L218.6 191.8L219.7 193.9L220.9 193.5L222.0 193.1L223.1 194.2L224.3 192.9L225.4 193.0L226.6 192.6L227.7 192.3L228.9 194.7L230.0 193.7L231.1 194.7L232.3 193.3L233.4 192.8L234.6 196.3L235.7 194.6L236.9 192.8L238.0 195.6L239.1 195.6L240.3 194.0L241.4 193.6L242.6 194.9L243.7 195.3L244.9 195.4L246.0 196.0L247.1 194.8L248.3 193.8L249.4 195.7L250.6 194.4L251.7 194.5L252.9 195.1L254.0 193.8L255.1 194.1L256.3 196.9L257.4 194.3L258.6 194.5L259.7 194.7L260.9 193.1L262.0 192.1L263.1 194.6L264.3 194.9L265.4 196.5L266.6 194.4L267.7 194.8L268.9 194.4L270.0 195.7L271.1 194.0L272.3 194.4L273.4 195.8L274.6 198.2L275.7 196.2L276.9 196.3L278.0 195.0L279.1 195.1L280.3 195.3L281.4 193.9L282.6 194.2L283.7 194.2L284.9 194.7L286.0 195.8L287.1 195.2L288.3 195.0L289.4 195.1L290.6 195.3L291.7 193.5L292.9 193.2L294.0 194.8L295.1 193.0L296.3 194.2L297.4 193.9L298.6 196.5L299.7 194.6L300.9 192.5L302.0 193.3L303.1 195.3L304.3 196.5L305.4 194.7L306.6 193.1L307.7 194.6L308.9 193.8L310.0 192.1L311.1 192.9L312.3 194.3L313.4 194.1L314.6 193.3L315.7 194.0L316.9 191.5L318.0 195.2L319.1 195.0L320.3 193.9L321.4 191.6L322.6 192.9L323.7 193.2L324.9 195.3L326.0 193.8L327.1 192.7L328.3 195.1L329.4 193.1L330.6 194.3L331.7 195.2L332.9 194.8L334.0 197.0L335.1 195.9L336.3 195.0L337.4 194.8L338.6 195.3L339.7 194.1L340.9 196.6L342.0 196.4L343.1 194.6L344.3 193.2L345.4 193.9L346.6 193.3L347.7 193.6L348.9 194.9L350.0 194.4L351.1 196.6L352.3 194.8L353.4 195.0L354.6 193.3L355.7 197.0L356.9 193.8L358.0 194.1L359.1 193.7L360.3 195.5L361.4 195.2L362.6 195.2L363.7 192.9L364.9 194.3L366.0 193.0L367.1 194.4L368.3 193.6L369.4 194.2L370.6 194.9L371.7 192.7L372.9 193.6L374.0 194.1L375.1 192.7L376.3 194.6L377.4 193.6L378.6 193.7L379.7 195.1L380.9 194.5L382.0 193.6L383.1 194.6L384.3 194.5L385.4 194.6L386.6 194.5L387.7 193.7L388.9 193.9L390.0 193.8L391.1 196.1L392.3 193.5L393.4 194.1L394.6 196.2L395.7 196.9L396.9 195.3L398.0 193.4L399.1 195.0L400.3 196.6L401.4 196.9L402.6 195.1L403.7 195.5L404.9 194.1L406.0 194.3L407.1 196.0L408.3 194.3L409.4 195.9L410.6 194.6L411.7 196.3L412.9 196.0L414.0 196.1L415.1 194.4L416.3 195.4L417.4 195.1L418.6 196.9L419.7 194.7L420.9 194.8L422.0 195.1L423.1 194.3L424.3 192.9L425.4 194.3L426.6 194.3L427.7 194.9L428.9 193.5L430.0 194.6L431.1 193.1L432.3 192.3L433.4 195.5L434.6 194.1L435.7 195.1L436.9 195.5L438.0 194.6L439.1 196.3L440.3 194.9L441.4 194.8L442.6 193.8L443.7 196.1L444.9 194.0L446.0 194.5L447.1 193.7L448.3 195.2L449.4 194.0L450.6 196.7L451.7 194.2L452.9 194.3L454.0 193.6L455.1 195.3L456.3 195.1L457.4 195.8L458.6 195.6L459.7 195.3L460.9 194.9L462.0 195.5L463.1 195.5L464.3 194.7L465.4 194.4L466.6 193.9L467.7 192.6L468.9 194.5" fill="none" stroke="#0072B2" stroke-width="1.6" stroke-dasharray="5 3"/><path d="M70.0 119.6L71.1 119.6L72.3 119.6L73.4 119.6L74.6 119.6L75.7 119.6L76.9 119.6L78.0 119.6L79.1 119.6L80.3 119.6L81.4 119.6L82.6 119.6L83.7 119.6L84.9 119.6L86.0 119.6L87.1 119.6L88.3 119.6L89.4 119.6L90.6 119.6L91.7 119.6L92.9 119.6L94.0 119.6L95.1 119.6L96.3 119.6L97.4 119.6L98.6 119.6L99.7 119.6L100.9 119.6L102.0 119.6L103.1 119.6L104.3 119.6L105.4 119.6L106.6 119.6L107.7 119.6L108.9 119.6L110.0 119.6L111.1 119.6L112.3 119.6L113.4 119.6L114.6 119.6L115.7 119.6L116.9 119.6L118.0 119.6L119.1 119.6L120.3 119.6L121.4 119.6L122.6 119.6L123.7 119.6L124.9 119.6L126.0 119.6L127.1 119.6L128.3 119.6L129.4 119.6L130.6 119.6L131.7 119.6L132.9 119.6L134.0 119.6L135.1 119.6L136.3 119.6L137.4 119.6L138.6 119.6L139.7 119.6L140.9 119.6L142.0 119.6L143.1 119.6L144.3 119.6L145.4 119.6L146.6 119.6L147.7 119.6L148.9 119.6L150.0 119.6L151.1 119.6L152.3 119.6L153.4 119.6L154.6 119.6L155.7 119.6L156.9 119.6L158.0 119.6L159.1 119.6L160.3 119.6L161.4 119.6L162.6 119.6L163.7 119.6L164.9 119.6L166.0 119.6L167.1 119.6L168.3 119.6L169.4 119.6L170.6 119.6L171.7 119.6L172.9 119.6L174.0 119.6L175.1 119.6L176.3 119.6L177.4 119.6L178.6 119.6L179.7 119.6L180.9 119.6L182.0 119.6L183.1 119.6L184.3 119.6L185.4 119.6L186.6 119.6L187.7 119.6L188.9 119.6L190.0 119.6L191.1 119.6L192.3 119.6L193.4 119.6L194.6 119.6L195.7 119.6L196.9 119.6L198.0 119.6L199.1 119.6L200.3 119.6L201.4 119.6L202.6 119.6L203.7 119.6L204.9 119.6L206.0 119.6L207.1 119.6L208.3 119.6L209.4 119.6L210.6 119.6L211.7 119.6L212.9 119.6L214.0 119.6L215.1 119.6L216.3 119.6L217.4 119.6L218.6 119.6L219.7 119.6L220.9 119.6L222.0 119.6L223.1 119.6L224.3 119.6L225.4 119.6L226.6 119.6L227.7 119.6L228.9 119.6L230.0 119.6L231.1 119.6L232.3 119.6L233.4 119.6L234.6 119.6L235.7 119.6L236.9 119.6L238.0 119.6L239.1 119.6L240.3 119.6L241.4 119.6L242.6 119.6L243.7 119.6L244.9 119.6L246.0 119.6L247.1 119.6L248.3 119.6L249.4 119.6L250.6 119.6L251.7 119.6L252.9 119.6L254.0 119.6L255.1 119.6L256.3 119.6L257.4 119.6L258.6 119.6L259.7 119.6L260.9 119.6L262.0 119.6L263.1 119.6L264.3 119.6L265.4 119.6L266.6 119.6L267.7 119.6L268.9 119.6L270.0 119.6L271.1 119.6L272.3 119.6L273.4 119.6L274.6 119.6L275.7 119.6L276.9 119.6L278.0 119.6L279.1 119.6L280.3 119.6L281.4 119.6L282.6 119.6L283.7 119.6L284.9 119.6L286.0 119.6L287.1 119.6L288.3 119.6L289.4 119.6L290.6 119.6L291.7 119.6L292.9 119.6L294.0 119.6L295.1 119.6L296.3 119.6L297.4 119.6L298.6 119.6L299.7 119.6L300.9 119.6L302.0 119.6L303.1 119.6L304.3 119.6L305.4 119.6L306.6 119.6L307.7 119.6L308.9 119.6L310.0 119.6L311.1 119.6L312.3 119.6L313.4 119.6L314.6 119.6L315.7 119.6L316.9 119.6L318.0 119.6L319.1 119.6L320.3 119.6L321.4 119.6L322.6 119.6L323.7 119.6L324.9 119.6L326.0 119.6L327.1 119.6L328.3 119.6L329.4 119.6L330.6 119.6L331.7 119.6L332.9 119.6L334.0 119.6L335.1 119.6L336.3 119.6L337.4 119.6L338.6 119.6L339.7 119.6L340.9 119.6L342.0 119.6L343.1 119.6L344.3 119.6L345.4 119.6L346.6 119.6L347.7 119.6L348.9 119.6L350.0 119.6L351.1 119.6L352.3 119.6L353.4 119.6L354.6 119.6L355.7 119.6L356.9 119.6L358.0 119.6L359.1 119.6L360.3 119.6L361.4 119.6L362.6 119.6L363.7 119.6L364.9 119.6L366.0 119.6L367.1 119.6L368.3 119.6L369.4 119.6L370.6 119.6L371.7 119.6L372.9 119.6L374.0 119.6L375.1 119.6L376.3 119.6L377.4 119.6L378.6 119.6L379.7 119.6L380.9 119.6L382.0 119.6L383.1 119.6L384.3 119.6L385.4 119.6L386.6 119.6L387.7 119.6L388.9 119.6L390.0 119.6L391.1 119.6L392.3 119.6L393.4 119.6L394.6 119.6L395.7 119.6L396.9 119.6L398.0 119.6L399.1 119.6L400.3 119.6L401.4 119.6L402.6 119.6L403.7 119.6L404.9 119.6L406.0 119.6L407.1 119.6L408.3 119.6L409.4 119.6L410.6 119.6L411.7 119.6L412.9 119.6L414.0 119.6L415.1 119.6L416.3 119.6L417.4 119.6L418.6 119.6L419.7 119.6L420.9 119.6L422.0 119.6L423.1 119.6L424.3 119.6L425.4 119.6L426.6 119.6L427.7 119.6L428.9 119.6L430.0 119.6L431.1 119.6L432.3 119.6L433.4 119.6L434.6 119.6L435.7 119.6L436.9 119.6L438.0 119.6L439.1 119.6L440.3 119.6L441.4 119.6L442.6 119.6L443.7 119.6L444.9 119.6L446.0 119.6L447.1 119.6L448.3 119.6L449.4 119.6L450.6 119.6L451.7 119.6L452.9 119.6L454.0 119.6L455.1 119.6L456.3 119.6L457.4 119.6L458.6 119.6L459.7 119.6L460.9 119.6L462.0 119.6L463.1 119.6L464.3 119.6L465.4 119.6L466.6 119.6L467.7 119.6L468.9 119.6" fill="none" stroke="#222" stroke-width="1.6" stroke-dasharray="5 3"/><line x1="70" y1="360" x2="92" y2="360" stroke="#D55E00" stroke-width="2"/><text x="98" y="364" font-size="11" font-family='Hiragino Sans, Noto Sans JP, Yu Gothic, sans-serif'>運動 K = K並進+K回転</text><line x1="270" y1="360" x2="292" y2="360" stroke="#0072B2" stroke-width="2"/><text x="298" y="364" font-size="11" font-family='Hiragino Sans, Noto Sans JP, Yu Gothic, sans-serif'>位置 U</text><line x1="70" y1="376" x2="92" y2="376" stroke="#222" stroke-width="2"/><text x="98" y="380" font-size="11" font-family='Hiragino Sans, Noto Sans JP, Yu Gothic, sans-serif'>全 E = K+U</text><line x1="270" y1="376" x2="292" y2="376" stroke="#666" stroke-width="2"/><text x="298" y="380" font-size="11" font-family='Hiragino Sans, Noto Sans JP, Yu Gothic, sans-serif'>実線 M-cold（t&lt;0 は熱浴）</text><line x1="70" y1="392" x2="92" y2="392" stroke="#666" stroke-width="2" stroke-dasharray="5 3"/><text x="98" y="396" font-size="11" font-family='Hiragino Sans, Noto Sans JP, Yu Gothic, sans-serif'>破線 A-closed（熱浴なし）</text><rect x="560" y="50" width="57.14285714285711" height="260" fill="#f3f3f3"/><rect x="560" y="50" width="400" height="260" fill="none" stroke="#999" stroke-width="0.8"/><line x1="560" y1="50" x2="560" y2="310" stroke="#eee"/><text x="560" y="325" font-size="11" text-anchor="middle" font-family='Hiragino Sans, Noto Sans JP, Yu Gothic, sans-serif'>-50</text><line x1="617.1428571428571" y1="50" x2="617.1428571428571" y2="310" stroke="#eee"/><text x="617.1428571428571" y="325" font-size="11" text-anchor="middle" font-family='Hiragino Sans, Noto Sans JP, Yu Gothic, sans-serif'>0</text><line x1="674.2857142857142" y1="50" x2="674.2857142857142" y2="310" stroke="#eee"/><text x="674.2857142857142" y="325" font-size="11" text-anchor="middle" font-family='Hiragino Sans, Noto Sans JP, Yu Gothic, sans-serif'>50</text><line x1="731.4285714285714" y1="50" x2="731.4285714285714" y2="310" stroke="#eee"/><text x="731.4285714285714" y="325" font-size="11" text-anchor="middle" font-family='Hiragino Sans, Noto Sans JP, Yu Gothic, sans-serif'>100</text><line x1="788.5714285714286" y1="50" x2="788.5714285714286" y2="310" stroke="#eee"/><text x="788.5714285714286" y="325" font-size="11" text-anchor="middle" font-family='Hiragino Sans, Noto Sans JP, Yu Gothic, sans-serif'>150</text><line x1="845.7142857142858" y1="50" x2="845.7142857142858" y2="310" stroke="#eee"/><text x="845.7142857142858" y="325" font-size="11" text-anchor="middle" font-family='Hiragino Sans, Noto Sans JP, Yu Gothic, sans-serif'>200</text><line x1="902.8571428571429" y1="50" x2="902.8571428571429" y2="310" stroke="#eee"/><text x="902.8571428571429" y="325" font-size="11" text-anchor="middle" font-family='Hiragino Sans, Noto Sans JP, Yu Gothic, sans-serif'>250</text><line x1="960" y1="50" x2="960" y2="310" stroke="#eee"/><text x="960" y="325" font-size="11" text-anchor="middle" font-family='Hiragino Sans, Noto Sans JP, Yu Gothic, sans-serif'>300</text><line x1="560" y1="310" x2="960" y2="310" stroke="#eee"/><text x="555" y="314" font-size="11" text-anchor="end" font-family='Hiragino Sans, Noto Sans JP, Yu Gothic, sans-serif'>1</text><line x1="560" y1="268.6494912576293" x2="960" y2="268.6494912576293" stroke="#eee"/><text x="555" y="272.6494912576293" font-size="11" text-anchor="end" font-family='Hiragino Sans, Noto Sans JP, Yu Gothic, sans-serif'>3</text><line x1="560" y1="223.33333333333334" x2="960" y2="223.33333333333334" stroke="#eee"/><text x="555" y="227.33333333333334" font-size="11" text-anchor="end" font-family='Hiragino Sans, Noto Sans JP, Yu Gothic, sans-serif'>10</text><line x1="560" y1="181.9828245909626" x2="960" y2="181.9828245909626" stroke="#eee"/><text x="555" y="185.9828245909626" font-size="11" text-anchor="end" font-family='Hiragino Sans, Noto Sans JP, Yu Gothic, sans-serif'>30</text><line x1="560" y1="136.66666666666669" x2="960" y2="136.66666666666669" stroke="#eee"/><text x="555" y="140.66666666666669" font-size="11" text-anchor="end" font-family='Hiragino Sans, Noto Sans JP, Yu Gothic, sans-serif'>100</text><line x1="560" y1="95.31615792429591" x2="960" y2="95.31615792429591" stroke="#eee"/><text x="555" y="99.31615792429591" font-size="11" text-anchor="end" font-family='Hiragino Sans, Noto Sans JP, Yu Gothic, sans-serif'>300</text><line x1="560" y1="50" x2="960" y2="50" stroke="#eee"/><text x="555" y="54" font-size="11" text-anchor="end" font-family='Hiragino Sans, Noto Sans JP, Yu Gothic, sans-serif'>1000</text><text x="760" y="342" font-size="12" text-anchor="middle" font-family='Hiragino Sans, Noto Sans JP, Yu Gothic, sans-serif'>t（τ）</text><text x="516" y="180" font-size="12" text-anchor="middle" transform="rotate(-90 516 180)" font-family='Hiragino Sans, Noto Sans JP, Yu Gothic, sans-serif'>平均パターン大きさ（個・対数）</text><path d="M562.3 241.2L563.4 222.0L564.6 189.8L565.7 160.0L566.9 149.6L568.0 144.3L569.1 124.9L570.3 109.5L571.4 115.2L572.6 94.1L573.7 67.8L574.9 94.0L576.0 102.4L577.1 93.9L578.3 94.1L579.4 67.9L580.6 94.0L581.7 83.1L582.9 83.0L584.0 83.1L585.1 109.1L586.3 93.8L587.4 109.1L588.6 83.0L589.7 67.8L590.9 83.1L592.0 93.9L593.1 93.9L594.3 109.1L595.4 102.3L596.6 94.3L597.7 109.4L598.9 109.2L600.0 102.4L601.1 94.0L602.3 83.2L603.4 83.3L604.6 94.2L605.7 67.9L606.9 83.1L608.0 50.0L609.1 67.9L610.3 83.1L611.4 67.9L612.6 67.8L613.7 67.7L614.9 83.0L616.0 67.7L617.1 102.2L617.1 50.0L618.3 50.0L619.4 50.0L620.6 93.8L621.7 93.8L622.9 102.2L624.0 93.8L625.1 94.0L626.3 93.9L627.4 93.8L628.6 109.2L629.7 102.4L630.9 67.7L632.0 109.2L633.1 109.1L634.3 83.0L635.4 67.7L636.6 109.0L637.7 93.8L638.9 67.7L640.0 83.0L641.1 67.8L642.3 67.8L643.4 102.3L644.6 83.0L645.7 67.7L646.9 94.0L648.0 93.8L649.1 109.3L650.3 102.4L651.4 83.1L652.6 83.0L653.7 93.8L654.9 102.2L656.0 102.3L657.1 109.3L658.3 94.0L659.4 120.0L660.6 94.2L661.7 68.2L662.9 50.0L664.0 67.9L665.1 93.8L666.3 102.2L667.4 93.9L668.6 83.0L669.7 102.5L670.9 102.4L672.0 102.6L673.1 109.1L674.3 93.9L675.4 83.1L676.6 83.0L677.7 83.1L678.9 83.2L680.0 109.1L681.1 119.9L682.3 93.9L683.4 83.1L684.6 83.0L685.7 114.9L686.9 83.2L688.0 93.8L689.1 83.2L690.3 83.2L691.4 83.0L692.6 93.8L693.7 102.4L694.9 83.2L696.0 83.0L697.1 93.8L698.3 83.0L699.4 102.3L700.6 120.1L701.7 94.0L702.9 94.1L704.0 83.2L705.1 109.3L706.3 102.3L707.4 83.0L708.6 109.2L709.7 94.0L710.9 94.1L712.0 67.9L713.1 67.8L714.3 83.2L715.4 102.2L716.6 67.9L717.7 102.3L718.9 114.9L720.0 83.1L721.1 102.4L722.3 94.0L723.4 94.1L724.6 83.0L725.7 50.0L726.9 67.8L728.0 67.8L729.1 50.0L730.3 67.8L731.4 93.9L732.6 67.8L733.7 93.8L734.9 83.0L736.0 50.0L737.1 50.0L738.3 94.0L739.4 83.0L740.6 67.7L741.7 83.0L742.9 67.8L744.0 93.8L745.1 67.8L746.3 94.0L747.4 67.8L748.6 102.3L749.7 115.0L750.9 94.1L752.0 94.3L753.1 68.0L754.3 93.9L755.4 83.3L756.6 94.1L757.7 67.8L758.9 83.0L760.0 83.0L761.1 83.3L762.3 67.8L763.4 93.9L764.6 109.1L765.7 109.1L766.9 109.1L768.0 67.8L769.1 83.0L770.3 83.1L771.4 68.0L772.6 83.6L773.7 83.3L774.9 115.1L776.0 120.0L777.1 93.9L778.3 67.7L779.4 83.0L780.6 109.1L781.7 109.1L782.9 83.1L784.0 67.8L785.1 50.0L786.3 109.2L787.4 124.7L788.6 102.5L789.7 109.3L790.9 50.0L792.0 50.0L793.1 83.1L794.3 68.0L795.4 68.0L796.6 94.2L797.7 94.4L798.9 50.0L800.0 67.9L801.1 93.9L802.3 67.8L803.4 83.0L804.6 50.0L805.7 102.2L806.9 94.0L808.0 109.2L809.1 109.1L810.3 102.4L811.4 102.5L812.6 83.1L813.7 83.2L814.9 93.9L816.0 93.9L817.1 83.1L818.3 115.0L819.4 128.4L820.6 124.5L821.7 102.5L822.9 94.0L824.0 50.0L825.1 94.0L826.3 83.2L827.4 109.4L828.6 67.9L829.7 67.7L830.9 83.0L832.0 83.0L833.1 102.3L834.3 93.9L835.4 109.1L836.6 67.9L837.7 93.9L838.9 102.3L840.0 93.9L841.1 67.7L842.3 50.0L843.4 67.9L844.6 83.1L845.7 67.9L846.9 83.0L848.0 83.0L849.1 67.7L850.3 67.7L851.4 83.0L852.6 83.1L853.7 68.1L854.9 94.1L856.0 94.0L857.1 93.9L858.3 114.9L859.4 109.1L860.6 102.3L861.7 67.8L862.9 93.8L864.0 83.0L865.1 83.0L866.3 50.0L867.4 83.1L868.6 93.9L869.7 93.9L870.9 67.8L872.0 115.0L873.1 102.2L874.3 128.5L875.4 115.1L876.6 109.2L877.7 93.9L878.9 83.2L880.0 50.0L881.1 67.9L882.3 83.1L883.4 83.2L884.6 67.9L885.7 102.6L886.9 94.3L888.0 94.1L889.1 83.4L890.3 102.5L891.4 102.3L892.6 109.2L893.7 102.3L894.9 102.3L896.0 67.8L897.1 115.1L898.3 83.0L899.4 93.8L900.6 114.8L901.7 93.8L902.9 50.0L904.0 102.3L905.1 67.8L906.3 93.8L907.4 93.8L908.6 93.9L909.7 109.3L910.9 93.9L912.0 94.0L913.1 120.1L914.3 115.0L915.4 93.9L916.6 109.1L917.7 67.7L918.9 93.9L920.0 94.1L921.1 94.1L922.3 83.1L923.4 67.8L924.6 109.1L925.7 83.0L926.9 109.0L928.0 114.9L929.1 93.9L930.3 83.0L931.4 83.0L932.6 67.8L933.7 83.0L934.9 67.7L936.0 102.2L937.1 93.8L938.3 93.8L939.4 128.3L940.6 102.4L941.7 115.1L942.9 94.1L944.0 102.6L945.1 67.9L946.3 50.0L947.4 83.2L948.6 83.0L949.7 93.9L950.9 67.8L952.0 114.9L953.1 50.0L954.3 83.0L955.4 93.9L956.6 109.3L957.7 102.3L958.9 109.1" fill="none" stroke="#CC79A7" stroke-width="1.6"/><path d="M562.3 247.4L563.4 244.2L564.6 239.2L565.7 230.3L566.9 218.5L568.0 215.4L569.1 210.3L570.3 202.6L571.4 192.2L572.6 195.5L573.7 187.9L574.9 180.1L576.0 172.4L577.1 175.8L578.3 160.7L579.4 174.1L580.6 174.0L581.7 174.4L582.9 170.3L584.0 163.0L585.1 168.0L586.3 157.8L587.4 128.7L588.6 143.8L589.7 147.9L590.9 143.8L592.0 139.3L593.1 134.6L594.3 129.0L595.4 139.8L596.6 144.1L597.7 147.6L598.9 139.2L600.0 139.2L601.1 121.9L602.3 128.8L603.4 113.4L604.6 102.2L605.7 113.1L606.9 102.3L608.0 113.2L609.1 121.6L610.3 134.2L611.4 134.1L612.6 113.0L613.7 86.9L614.9 60.9L616.0 60.9L617.1 102.3L617.1 102.2L618.3 113.0L619.4 128.4L620.6 128.4L621.7 134.1L622.9 134.1L624.0 121.6L625.1 139.2L626.3 143.6L627.4 134.2L628.6 134.1L629.7 128.3L630.9 139.2L632.0 128.4L633.1 143.6L634.3 102.3L635.4 134.2L636.6 121.7L637.7 121.4L638.9 128.3L640.0 147.6L641.1 147.6L642.3 157.5L643.4 160.2L644.6 157.6L645.7 157.4L646.9 157.4L648.0 151.1L649.1 147.6L650.3 139.1L651.4 139.1L652.6 147.6L653.7 134.4L654.9 102.6L656.0 113.5L657.1 147.6L658.3 128.5L659.4 139.2L660.6 128.4L661.7 121.5L662.9 102.4L664.0 113.1L665.1 102.3L666.3 113.2L667.4 121.9L668.6 121.9L669.7 102.6L670.9 61.2L672.0 102.3L673.1 61.0L674.3 61.0L675.4 61.2L676.6 113.2L677.7 113.3L678.9 121.6L680.0 121.6L681.1 113.6L682.3 134.4L683.4 147.6L684.6 102.3L685.7 144.0L686.9 128.4L688.0 147.7L689.1 143.7L690.3 143.8L691.4 139.4L692.6 160.3L693.7 147.8L694.9 160.5L696.0 139.2L697.1 151.2L698.3 139.3L699.4 128.9L700.6 121.8L701.7 128.7L702.9 121.6L704.0 113.2L705.1 113.2L706.3 128.3L707.4 147.7L708.6 139.3L709.7 147.7L710.9 147.5L712.0 160.3L713.1 157.5L714.3 162.8L715.4 143.7L716.6 163.1L717.7 163.0L718.9 147.7L720.0 139.3L721.1 147.6L722.3 139.1L723.4 128.4L724.6 134.2L725.7 143.6L726.9 147.5L728.0 134.1L729.1 113.0L730.3 128.5L731.4 128.5L732.6 143.6L733.7 147.5L734.9 147.5L736.0 143.6L737.1 139.3L738.3 154.5L739.4 154.6L740.6 154.5L741.7 134.1L742.9 139.1L744.0 151.2L745.1 134.2L746.3 147.8L747.4 157.4L748.6 147.5L749.7 121.6L750.9 143.6L752.0 134.2L753.1 128.4L754.3 134.2L755.4 121.7L756.6 128.5L757.7 128.7L758.9 139.4L760.0 139.1L761.1 134.2L762.3 128.7L763.4 134.4L764.6 121.7L765.7 128.7L766.9 128.8L768.0 143.7L769.1 154.5L770.3 147.8L771.4 139.1L772.6 134.1L773.7 113.1L774.9 134.1L776.0 113.0L777.1 134.2L778.3 147.7L779.4 143.8L780.6 147.6L781.7 143.7L782.9 139.2L784.0 147.5L785.1 147.6L786.3 151.1L787.4 139.1L788.6 139.1L789.7 143.8L790.9 143.7L792.0 139.1L793.1 143.5L794.3 151.1L795.4 134.2L796.6 143.6L797.7 147.6L798.9 128.4L800.0 128.4L801.1 128.7L802.3 121.6L803.4 134.1L804.6 121.4L805.7 139.1L806.9 151.2L808.0 151.1L809.1 139.1L810.3 134.1L811.4 147.5L812.6 139.2L813.7 139.1L814.9 134.1L816.0 139.1L817.1 134.1L818.3 134.1L819.4 139.1L820.6 134.1L821.7 151.1L822.9 147.6L824.0 143.6L825.1 121.4L826.3 128.3L827.4 121.6L828.6 134.1L829.7 151.1L830.9 151.1L832.0 151.2L833.1 151.6L834.3 147.7L835.4 128.4L836.6 102.3L837.7 121.7L838.9 128.4L840.0 139.4L841.1 147.5L842.3 147.5L843.4 151.1L844.6 147.5L845.7 134.1L846.9 154.4L848.0 157.4L849.1 147.5L850.3 154.4L851.4 143.6L852.6 143.7L853.7 139.3L854.9 113.3L856.0 134.1L857.1 139.2L858.3 157.5L859.4 160.3L860.6 160.3L861.7 139.1L862.9 128.3L864.0 143.6L865.1 128.5L866.3 121.5L867.4 134.2L868.6 121.4L869.7 121.5L870.9 134.3L872.0 134.5L873.1 148.2L874.3 154.6L875.4 151.3L876.6 143.6L877.7 134.2L878.9 134.1L880.0 121.7L881.1 121.7L882.3 143.9L883.4 147.8L884.6 147.8L885.7 151.3L886.9 157.4L888.0 154.4L889.1 128.3L890.3 154.5L891.4 147.9L892.6 157.9L893.7 139.8L894.9 134.2L896.0 151.3L897.1 139.6L898.3 157.7L899.4 147.8L900.6 151.3L901.7 151.5L902.9 143.8L904.0 128.6L905.1 128.4L906.3 128.4L907.4 134.1L908.6 113.0L909.7 139.1L910.9 139.5L912.0 147.9L913.1 154.6L914.3 139.1L915.4 128.7L916.6 113.2L917.7 113.1L918.9 139.3L920.0 151.3L921.1 147.5L922.3 128.4L923.4 139.1L924.6 139.1L925.7 128.3L926.9 128.3L928.0 128.5L929.1 121.6L930.3 134.1L931.4 151.4L932.6 134.3L933.7 151.2L934.9 139.5L936.0 134.6L937.1 143.8L938.3 134.1L939.4 113.0L940.6 113.0L941.7 121.5L942.9 134.2L944.0 134.2L945.1 139.2L946.3 143.5L947.4 154.5L948.6 151.2L949.7 157.6L950.9 160.4L952.0 160.3L953.1 147.5L954.3 143.6L955.4 128.3L956.6 102.2L957.7 113.1L958.9 143.6" fill="none" stroke="#CC79A7" stroke-width="1.6" stroke-dasharray="5 3"/><path d="M562.3 257.8L563.4 242.6L564.6 253.9L565.7 250.7L566.9 250.1L568.0 248.4L569.1 244.2L570.3 243.5L571.4 238.9L572.6 237.7L573.7 233.2L574.9 231.2L576.0 227.4L577.1 225.0L578.3 221.1L579.4 217.8L580.6 215.6L581.7 210.2L582.9 211.2L584.0 212.1L585.1 210.7L586.3 208.7L587.4 204.3L588.6 205.8L589.7 210.2L590.9 210.0L592.0 209.8L593.1 208.2L594.3 201.5L595.4 199.7L596.6 197.1L597.7 194.9L598.9 199.1L600.0 196.7L601.1 196.9L602.3 201.0L603.4 204.6L604.6 202.2L605.7 203.7L606.9 196.1L608.0 191.7L609.1 194.1L610.3 186.8L611.4 186.7L612.6 177.4L613.7 170.1L614.9 181.0L616.0 184.3L617.1 189.6L617.1 181.1L618.3 170.2L619.4 174.2L620.6 186.7L621.7 192.0L622.9 192.0L624.0 184.1L625.1 189.5L626.3 184.7L627.4 187.2L628.6 189.5L629.7 186.4L630.9 177.8L632.0 177.6L633.1 180.8L634.3 189.2L635.4 180.6L636.6 183.7L637.7 173.8L638.9 177.4L640.0 186.4L641.1 180.6L642.3 191.7L643.4 183.9L644.6 180.8L645.7 186.7L646.9 189.2L648.0 183.9L649.1 177.4L650.3 169.7L651.4 177.4L652.6 183.7L653.7 191.8L654.9 193.7L656.0 193.9L657.1 188.9L658.3 183.6L659.4 183.6L660.6 183.6L661.7 189.0L662.9 193.8L664.0 189.0L665.1 191.3L666.3 191.6L667.4 192.1L668.6 181.2L669.7 183.7L670.9 186.2L672.0 189.4L673.1 186.6L674.3 184.1L675.4 189.1L676.6 189.1L677.7 186.2L678.9 191.3L680.0 191.3L681.1 183.5L682.3 183.5L683.4 177.2L684.6 186.2L685.7 180.4L686.9 193.6L688.0 187.0L689.1 192.2L690.3 191.8L691.4 189.0L692.6 188.9L693.7 183.6L694.9 183.7L696.0 173.8L697.1 170.1L698.3 173.6L699.4 180.5L700.6 188.9L701.7 186.3L702.9 188.8L704.0 183.5L705.1 183.5L706.3 177.2L707.4 186.7L708.6 186.7L709.7 187.1L710.9 186.6L712.0 191.7L713.1 188.8L714.3 186.2L715.4 186.7L716.6 186.7L717.7 180.6L718.9 186.2L720.0 186.2L721.1 191.3L722.3 197.7L723.4 186.3L724.6 191.4L725.7 183.7L726.9 180.7L728.0 183.9L729.1 183.9L730.3 174.0L731.4 177.5L732.6 177.3L733.7 184.2L734.9 174.5L736.0 184.8L737.1 181.0L738.3 177.4L739.4 165.4L740.6 160.4L741.7 165.5L742.9 160.6L744.0 174.0L745.1 177.6L746.3 183.8L747.4 180.6L748.6 173.9L749.7 165.4L750.9 165.5L752.0 165.5L753.1 169.9L754.3 169.8L755.4 173.8L756.6 189.0L757.7 191.8L758.9 184.0L760.0 177.5L761.1 173.7L762.3 186.6L763.4 183.9L764.6 186.7L765.7 173.8L766.9 173.7L768.0 165.3L769.1 165.3L770.3 173.7L771.4 173.7L772.6 177.6L773.7 184.3L774.9 184.2L776.0 184.1L777.1 177.7L778.3 181.0L779.4 183.6L780.6 186.4L781.7 183.7L782.9 186.3L784.0 177.6L785.1 181.0L786.3 181.2L787.4 177.8L788.6 165.7L789.7 177.6L790.9 173.7L792.0 177.5L793.1 183.6L794.3 180.6L795.4 173.8L796.6 177.5L797.7 177.4L798.9 177.4L800.0 165.8L801.1 166.0L802.3 174.3L803.4 173.8L804.6 177.4L805.7 177.6L806.9 177.6L808.0 174.0L809.1 177.4L810.3 170.0L811.4 177.6L812.6 180.7L813.7 183.7L814.9 183.8L816.0 177.5L817.1 160.3L818.3 180.7L819.4 177.7L820.6 181.0L821.7 169.7L822.9 165.3L824.0 160.3L825.1 154.5L826.3 160.3L827.4 169.7L828.6 177.4L829.7 169.8L830.9 165.4L832.0 169.7L833.1 169.6L834.3 160.2L835.4 165.2L836.6 160.2L837.7 165.2L838.9 177.2L840.0 183.5L841.1 186.6L842.3 170.0L843.4 186.9L844.6 173.9L845.7 177.3L846.9 169.8L848.0 174.4L849.1 170.6L850.3 174.3L851.4 181.1L852.6 183.9L853.7 177.2L854.9 177.2L856.0 173.7L857.1 177.4L858.3 177.4L859.4 184.0L860.6 180.7L861.7 180.8L862.9 180.6L864.0 180.5L865.1 177.3L866.3 169.9L867.4 173.9L868.6 165.8L869.7 177.4L870.9 174.1L872.0 173.6L873.1 169.6L874.3 160.2L875.4 174.3L876.6 170.6L877.7 174.7L878.9 181.4L880.0 183.7L881.1 180.5L882.3 174.0L883.4 177.4L884.6 173.6L885.7 169.7L886.9 169.7L888.0 177.9L889.1 178.1L890.3 174.2L891.4 177.5L892.6 165.3L893.7 173.7L894.9 160.3L896.0 165.3L897.1 173.8L898.3 173.7L899.4 165.5L900.6 177.7L901.7 183.9L902.9 183.7L904.0 177.2L905.1 177.5L906.3 169.7L907.4 180.5L908.6 177.5L909.7 177.4L910.9 169.8L912.0 173.8L913.1 169.7L914.3 170.0L915.4 174.0L916.6 177.8L917.7 186.9L918.9 181.2L920.0 191.9L921.1 186.9L922.3 183.8L923.4 177.8L924.6 180.4L925.7 169.9L926.9 174.2L928.0 177.8L929.1 173.9L930.3 177.6L931.4 181.0L932.6 186.4L933.7 189.0L934.9 184.1L936.0 189.5L937.1 189.1L938.3 180.6L939.4 181.1L940.6 177.6L941.7 177.7L942.9 174.2L944.0 180.8L945.1 183.9L946.3 183.8L947.4 186.6L948.6 180.5L949.7 177.3L950.9 177.4L952.0 177.5L953.1 173.9L954.3 169.8L955.4 165.3L956.6 173.7L957.7 177.3L958.9 183.5" fill="none" stroke="#CC79A7" stroke-width="1.6" stroke-dasharray="2 2"/><path d="M562.3 251.4L563.4 250.0L564.6 245.7L565.7 242.6L566.9 239.8L568.0 237.4L569.1 233.2L570.3 233.7L571.4 234.4L572.6 233.1L573.7 234.5L574.9 230.3L576.0 225.8L577.1 227.8L578.3 226.4L579.4 229.3L580.6 229.6L581.7 225.8L582.9 227.1L584.0 228.7L585.1 229.3L586.3 226.6L587.4 228.7L588.6 225.7L589.7 227.3L590.9 227.8L592.0 226.3L593.1 220.7L594.3 223.0L595.4 227.2L596.6 225.1L597.7 225.0L598.9 223.0L600.0 223.5L601.1 225.8L602.3 227.8L603.4 224.1L604.6 230.3L605.7 229.5L606.9 226.0L608.0 227.7L609.1 227.5L610.3 227.8L611.4 226.8L612.6 226.7L613.7 225.5L614.9 225.8L616.0 228.4L617.1 225.5L617.1 208.7L618.3 213.2L619.4 229.3L620.6 222.8L621.7 224.5L622.9 228.5L624.0 226.9L625.1 227.1L626.3 226.8L627.4 221.3L628.6 228.5L629.7 229.2L630.9 230.8L632.0 228.3L633.1 226.0L634.3 229.3L635.4 224.4L636.6 225.4L637.7 224.6L638.9 224.0L640.0 223.7L641.1 225.4L642.3 227.5L643.4 221.4L644.6 221.2L645.7 224.5L646.9 222.8L648.0 226.5L649.1 227.1L650.3 225.9L651.4 225.1L652.6 224.3L653.7 224.9L654.9 222.9L656.0 220.4L657.1 225.2L658.3 224.1L659.4 223.1L660.6 228.3L661.7 230.9L662.9 229.8L664.0 226.4L665.1 225.3L666.3 225.8L667.4 226.4L668.6 228.8L669.7 228.0L670.9 228.3L672.0 226.5L673.1 229.1L674.3 224.4L675.4 226.6L676.6 227.4L677.7 229.1L678.9 225.1L680.0 227.9L681.1 224.9L682.3 228.3L683.4 227.6L684.6 225.1L685.7 226.3L686.9 227.4L688.0 227.4L689.1 226.3L690.3 225.5L691.4 227.7L692.6 230.2L693.7 230.7L694.9 225.7L696.0 224.4L697.1 225.4L698.3 229.3L699.4 230.3L700.6 230.1L701.7 226.9L702.9 228.1L704.0 228.0L705.1 227.5L706.3 229.3L707.4 225.1L708.6 224.7L709.7 222.2L710.9 222.7L712.0 223.3L713.1 223.9L714.3 226.1L715.4 226.8L716.6 227.0L717.7 223.3L718.9 223.7L720.0 227.4L721.1 228.9L722.3 221.9L723.4 225.5L724.6 227.5L725.7 227.9L726.9 225.6L728.0 228.4L729.1 222.8L730.3 223.8L731.4 224.8L732.6 225.2L733.7 225.9L734.9 227.7L736.0 229.0L737.1 225.5L738.3 221.7L739.4 221.1L740.6 230.1L741.7 230.9L742.9 228.4L744.0 227.9L745.1 219.7L746.3 218.1L747.4 216.5L748.6 225.1L749.7 228.0L750.9 227.9L752.0 229.3L753.1 226.7L754.3 223.1L755.4 220.7L756.6 224.5L757.7 226.0L758.9 224.2L760.0 228.3L761.1 221.9L762.3 224.7L763.4 227.0L764.6 228.5L765.7 229.4L766.9 229.2L768.0 226.8L769.1 225.5L770.3 225.2L771.4 222.2L772.6 226.1L773.7 223.5L774.9 224.6L776.0 223.9L777.1 222.8L778.3 228.1L779.4 232.3L780.6 233.6L781.7 228.1L782.9 226.7L784.0 227.1L785.1 228.5L786.3 224.0L787.4 228.9L788.6 227.4L789.7 229.3L790.9 226.4L792.0 224.4L793.1 220.2L794.3 224.5L795.4 224.4L796.6 225.7L797.7 228.5L798.9 225.7L800.0 229.7L801.1 229.0L802.3 226.7L803.4 230.3L804.6 228.3L805.7 230.7L806.9 229.6L808.0 228.4L809.1 225.9L810.3 226.3L811.4 223.9L812.6 221.0L813.7 220.0L814.9 223.6L816.0 223.6L817.1 224.8L818.3 227.3L819.4 229.0L820.6 229.4L821.7 228.2L822.9 227.3L824.0 226.5L825.1 225.6L826.3 220.2L827.4 225.4L828.6 222.8L829.7 222.9L830.9 220.7L832.0 220.1L833.1 222.8L834.3 226.3L835.4 228.9L836.6 230.3L837.7 230.3L838.9 230.8L840.0 230.5L841.1 226.0L842.3 223.7L843.4 222.1L844.6 231.4L845.7 224.1L846.9 225.7L848.0 225.3L849.1 227.9L850.3 229.0L851.4 226.0L852.6 230.4L853.7 227.2L854.9 225.1L856.0 228.1L857.1 227.9L858.3 225.8L859.4 225.6L860.6 221.6L861.7 223.8L862.9 228.5L864.0 227.7L865.1 224.6L866.3 221.2L867.4 224.2L868.6 225.6L869.7 227.9L870.9 227.5L872.0 229.2L873.1 229.7L874.3 228.5L875.4 224.0L876.6 229.2L877.7 228.0L878.9 227.5L880.0 225.4L881.1 227.2L882.3 227.8L883.4 225.3L884.6 225.2L885.7 221.6L886.9 223.3L888.0 226.1L889.1 224.7L890.3 225.5L891.4 226.9L892.6 229.9L893.7 230.6L894.9 228.8L896.0 223.6L897.1 225.0L898.3 226.2L899.4 226.2L900.6 223.8L901.7 224.8L902.9 226.4L904.0 228.4L905.1 225.7L906.3 228.4L907.4 224.0L908.6 225.8L909.7 227.0L910.9 226.2L912.0 222.3L913.1 225.6L914.3 228.5L915.4 227.8L916.6 227.8L917.7 230.7L918.9 228.9L920.0 229.2L921.1 228.2L922.3 228.2L923.4 226.4L924.6 225.9L925.7 227.1L926.9 226.0L928.0 223.3L929.1 223.3L930.3 226.7L931.4 225.0L932.6 228.3L933.7 226.7L934.9 222.4L936.0 224.7L937.1 227.4L938.3 228.5L939.4 229.0L940.6 228.6L941.7 227.2L942.9 224.1L944.0 225.6L945.1 228.0L946.3 232.0L947.4 225.7L948.6 223.1L949.7 226.1L950.9 225.6L952.0 227.2L953.1 226.5L954.3 225.1L955.4 228.1L956.6 226.7L957.7 222.5L958.9 224.1" fill="none" stroke="#0072B2" stroke-width="1.6"/><path d="M562.3 257.8L563.4 257.8L564.6 256.5L565.7 252.7L566.9 247.5L568.0 249.4L569.1 253.0L570.3 247.4L571.4 251.0L572.6 252.1L573.7 252.3L574.9 253.4L576.0 248.8L577.1 252.5L578.3 253.8L579.4 250.2L580.6 253.7L581.7 251.1L582.9 249.8L584.0 248.2L585.1 247.7L586.3 250.2L587.4 253.0L588.6 252.7L589.7 248.7L590.9 245.7L592.0 250.1L593.1 250.8L594.3 251.3L595.4 250.8L596.6 250.8L597.7 249.4L598.9 246.2L600.0 250.1L601.1 253.2L602.3 252.4L603.4 249.4L604.6 247.2L605.7 247.1L606.9 248.1L608.0 251.3L609.1 250.1L610.3 244.1L611.4 252.3L612.6 249.4L613.7 251.4L614.9 247.7L616.0 251.8L617.1 250.4L617.1 246.0L618.3 246.7L619.4 252.5L620.6 248.8L621.7 250.8L622.9 250.6L624.0 249.4L625.1 252.2L626.3 250.8L627.4 250.7L628.6 252.7L629.7 253.4L630.9 253.1L632.0 252.0L633.1 250.8L634.3 248.9L635.4 247.9L636.6 251.0L637.7 248.4L638.9 251.9L640.0 252.0L641.1 251.4L642.3 253.4L643.4 252.0L644.6 252.6L645.7 251.7L646.9 250.5L648.0 250.4L649.1 251.5L650.3 250.7L651.4 248.7L652.6 251.8L653.7 252.0L654.9 249.4L656.0 252.0L657.1 249.0L658.3 249.4L659.4 250.1L660.6 247.2L661.7 248.5L662.9 249.4L664.0 251.4L665.1 250.8L666.3 248.8L667.4 249.7L668.6 251.3L669.7 254.0L670.9 248.8L672.0 251.7L673.1 249.7L674.3 247.7L675.4 249.1L676.6 251.4L677.7 253.8L678.9 253.4L680.0 251.9L681.1 250.1L682.3 250.4L683.4 252.3L684.6 250.3L685.7 251.0L686.9 251.4L688.0 250.7L689.1 248.6L690.3 252.0L691.4 254.2L692.6 253.1L693.7 251.3L694.9 250.6L696.0 250.8L697.1 252.6L698.3 249.8L699.4 251.5L700.6 251.4L701.7 252.8L702.9 252.2L704.0 249.1L705.1 249.1L706.3 252.6L707.4 251.9L708.6 249.1L709.7 252.3L710.9 251.6L712.0 250.8L713.1 249.8L714.3 251.5L715.4 250.9L716.6 251.4L717.7 252.9L718.9 253.4L720.0 252.1L721.1 251.1L722.3 252.1L723.4 253.7L724.6 254.4L725.7 252.7L726.9 255.2L728.0 253.7L729.1 251.0L730.3 249.7L731.4 251.0L732.6 251.4L733.7 252.1L734.9 254.2L736.0 254.0L737.1 253.0L738.3 251.5L739.4 253.4L740.6 253.4L741.7 249.1L742.9 252.8L744.0 251.8L745.1 250.2L746.3 250.9L747.4 250.6L748.6 253.9L749.7 247.7L750.9 247.7L752.0 251.0L753.1 250.2L754.3 249.1L755.4 249.4L756.6 247.8L757.7 244.3L758.9 252.2L760.0 250.6L761.1 253.6L762.3 253.2L763.4 252.5L764.6 248.9L765.7 249.9L766.9 247.9L768.0 250.3L769.1 251.4L770.3 249.7L771.4 248.5L772.6 250.4L773.7 249.7L774.9 251.0L776.0 249.4L777.1 250.7L778.3 248.1L779.4 249.4L780.6 247.7L781.7 250.8L782.9 252.3L784.0 251.2L785.1 250.3L786.3 253.4L787.4 252.6L788.6 253.6L789.7 252.3L790.9 250.8L792.0 252.2L793.1 251.6L794.3 253.0L795.4 251.4L796.6 252.3L797.7 251.9L798.9 249.8L800.0 249.8L801.1 251.4L802.3 254.6L803.4 251.0L804.6 252.4L805.7 248.5L806.9 249.0L808.0 248.5L809.1 249.4L810.3 247.9L811.4 252.1L812.6 248.7L813.7 249.4L814.9 251.5L816.0 251.6L817.1 252.3L818.3 251.9L819.4 251.8L820.6 248.6L821.7 250.1L822.9 250.6L824.0 247.3L825.1 250.3L826.3 253.2L827.4 252.6L828.6 246.7L829.7 248.7L830.9 248.2L832.0 250.6L833.1 250.3L834.3 251.7L835.4 250.6L836.6 253.2L837.7 252.0L838.9 254.4L840.0 247.0L841.1 251.3L842.3 249.8L843.4 249.1L844.6 246.7L845.7 251.2L846.9 251.8L848.0 250.5L849.1 251.2L850.3 249.4L851.4 251.4L852.6 250.6L853.7 249.1L854.9 249.1L856.0 252.3L857.1 249.4L858.3 251.0L859.4 245.4L860.6 249.4L861.7 253.2L862.9 251.1L864.0 250.3L865.1 251.1L866.3 253.2L867.4 252.4L868.6 252.3L869.7 250.5L870.9 253.8L872.0 248.2L873.1 252.0L874.3 253.8L875.4 252.3L876.6 251.7L877.7 251.2L878.9 248.4L880.0 247.3L881.1 244.5L882.3 245.7L883.4 249.4L884.6 252.3L885.7 254.4L886.9 254.1L888.0 252.6L889.1 252.9L890.3 250.7L891.4 250.6L892.6 250.5L893.7 248.1L894.9 251.5L896.0 251.0L897.1 249.7L898.3 249.1L899.4 250.6L900.6 251.0L901.7 247.6L902.9 249.0L904.0 249.7L905.1 251.3L906.3 250.3L907.4 249.7L908.6 250.6L909.7 252.1L910.9 248.1L912.0 248.4L913.1 251.1L914.3 246.5L915.4 247.3L916.6 247.6L917.7 248.3L918.9 251.2L920.0 250.4L921.1 251.0L922.3 251.3L923.4 250.5L924.6 252.0L925.7 252.5L926.9 251.9L928.0 247.8L929.1 251.9L930.3 255.8L931.4 251.3L932.6 252.2L933.7 251.3L934.9 252.5L936.0 249.8L937.1 248.7L938.3 250.6L939.4 253.4L940.6 253.1L941.7 250.9L942.9 252.1L944.0 250.8L945.1 248.7L946.3 248.7L947.4 251.1L948.6 249.7L949.7 247.8L950.9 249.4L952.0 246.9L953.1 248.9L954.3 248.8L955.4 248.4L956.6 251.1L957.7 249.7L958.9 247.3" fill="none" stroke="#009E73" stroke-width="1.6"/><path d="M564.6 257.8L566.9 249.4L568.0 257.8L571.4 257.8L572.6 249.4L573.7 257.8L574.9 254.8L576.0 249.4L577.1 254.8L578.3 257.8L579.4 257.8L580.6 253.4L582.9 254.8L585.1 257.8L586.3 257.8L588.6 257.8L589.7 257.8L590.9 257.8L592.0 257.8L593.1 257.8L595.4 253.4L596.6 252.0L597.7 257.8L601.1 257.8L602.3 257.8L604.6 257.8L605.7 257.8L608.0 257.8L609.1 257.8L610.3 257.8L612.6 257.8L613.7 257.8L614.9 257.8L616.0 257.8L617.1 257.8L618.3 249.4L619.4 249.4L620.6 257.8L621.7 257.8L624.0 257.8L627.4 257.8L628.6 257.8L629.7 253.4L630.9 257.8L632.0 257.8L633.1 257.8L634.3 257.8L635.4 249.4L636.6 255.5L637.7 242.6L640.0 257.8L641.1 257.8L643.4 257.8L645.7 257.8L646.9 257.8L648.0 257.8L649.1 257.8L650.3 257.8L651.4 257.8L652.6 257.8L653.7 257.8L654.9 257.8L656.0 257.8L657.1 257.8L659.4 257.8L660.6 257.8L661.7 249.4L662.9 249.4L664.0 257.8L665.1 253.4L666.3 257.8L667.4 255.5L668.6 242.6L669.7 253.4L670.9 257.8L673.1 257.8L674.3 249.4L675.4 257.8L676.6 257.8L677.7 257.8L683.4 249.4L684.6 253.4L685.7 257.8L689.1 257.8L690.3 257.8L691.4 257.8L692.6 257.8L694.9 257.8L696.0 255.5L697.1 257.8L698.3 257.8L699.4 257.8L700.6 257.8L701.7 242.6L702.9 249.4L708.6 257.8L709.7 257.8L710.9 257.8L712.0 252.0L713.1 257.8L716.6 257.8L717.7 257.8L718.9 257.8L720.0 257.8L721.1 249.4L722.3 257.8L724.6 257.8L730.3 257.8L732.6 257.8L736.0 252.0L737.1 252.0L738.3 257.8L741.7 257.8L744.0 257.8L745.1 257.8L746.3 254.2L747.4 257.8L748.6 257.8L749.7 257.8L752.0 257.8L753.1 257.8L754.3 257.8L755.4 253.4L757.7 257.8L758.9 254.8L760.0 257.8L762.3 257.8L763.4 249.4L764.6 257.8L765.7 249.4L766.9 257.8L768.0 257.8L769.1 257.8L770.3 257.8L771.4 257.8L773.7 249.4L774.9 253.4L776.0 257.8L777.1 253.4L778.3 254.8L779.4 254.8L780.6 257.8L784.0 257.8L790.9 257.8L792.0 257.8L793.1 257.8L794.3 257.8L795.4 257.8L796.6 257.8L797.7 257.8L798.9 257.8L801.1 257.8L805.7 257.8L806.9 249.4L808.0 257.8L809.1 257.8L810.3 257.8L811.4 257.8L812.6 257.8L813.7 257.8L817.1 257.8L818.3 257.8L819.4 257.8L820.6 257.8L821.7 249.4L822.9 257.8L824.0 257.8L825.1 257.8L826.3 257.8L827.4 257.8L828.6 257.8L832.0 257.8L834.3 257.8L835.4 257.8L836.6 257.8L838.9 254.8L840.0 249.4L841.1 257.8L842.3 249.4L843.4 249.4L845.7 257.8L846.9 257.8L848.0 257.8L849.1 253.4L850.3 257.8L851.4 257.8L852.6 257.8L856.0 257.8L857.1 257.8L858.3 257.8L859.4 257.8L861.7 257.8L864.0 257.8L865.1 257.8L866.3 257.8L867.4 254.8L870.9 249.4L872.0 249.4L873.1 249.4L877.7 257.8L878.9 257.8L880.0 257.8L881.1 257.8L882.3 253.4L883.4 231.7L884.6 254.8L885.7 257.8L888.0 254.8L889.1 253.4L892.6 254.8L893.7 257.8L894.9 253.4L896.0 253.4L897.1 249.4L898.3 257.8L899.4 257.8L900.6 257.8L901.7 257.8L902.9 257.8L904.0 257.8L906.3 253.4L907.4 253.4L908.6 257.8L909.7 257.8L910.9 257.8L912.0 257.8L913.1 257.8L914.3 257.8L915.4 257.8L918.9 257.8L921.1 257.8L922.3 253.4L923.4 249.4L924.6 249.4L925.7 255.5L926.9 249.4L928.0 254.8L929.1 242.6L930.3 257.8L931.4 249.4L932.6 257.8L936.0 256.0L937.1 257.8L938.3 257.8L939.4 257.8L940.6 254.8L941.7 245.8L942.9 249.4L945.1 257.8L946.3 257.8L948.6 257.8L949.7 253.4L950.9 257.8L955.4 257.8L958.9 257.8" fill="none" stroke="#999" stroke-width="1.6"/><line x1="560" y1="360" x2="582" y2="360" stroke="#CC79A7" stroke-width="2"/><text x="588" y="364" font-size="11" font-family='Hiragino Sans, Noto Sans JP, Yu Gothic, sans-serif'>M-cold ρ=0.50</text><line x1="695" y1="360" x2="717" y2="360" stroke="#CC79A7" stroke-width="2" stroke-dasharray="5 3"/><text x="723" y="364" font-size="11" font-family='Hiragino Sans, Noto Sans JP, Yu Gothic, sans-serif'>M-cold ρ=0.30</text><line x1="830" y1="360" x2="852" y2="360" stroke="#CC79A7" stroke-width="2" stroke-dasharray="2 2"/><text x="858" y="364" font-size="11" font-family='Hiragino Sans, Noto Sans JP, Yu Gothic, sans-serif'>M-cold ρ=0.15</text><line x1="560" y1="376" x2="582" y2="376" stroke="#0072B2" stroke-width="2"/><text x="588" y="380" font-size="11" font-family='Hiragino Sans, Noto Sans JP, Yu Gothic, sans-serif'>M-mid ρ=0.30</text><line x1="695" y1="376" x2="717" y2="376" stroke="#009E73" stroke-width="2"/><text x="723" y="380" font-size="11" font-family='Hiragino Sans, Noto Sans JP, Yu Gothic, sans-serif'>M-warm ρ=0.30</text><line x1="830" y1="376" x2="852" y2="376" stroke="#999" stroke-width="2"/><text x="858" y="380" font-size="11" font-family='Hiragino Sans, Noto Sans JP, Yu Gothic, sans-serif'>A-closed ρ=0.30</text></svg>
